<svg width="436" height="398" viewBox="0 0 436 398" fill="none" xmlns="http://www.w3.org/2000/svg">
<path d="M234.24 397.895C333.031 397.895 413.116 392.382 413.116 385.581C413.116 378.78 333.031 373.267 234.24 373.267C135.45 373.267 55.3648 378.78 55.3648 385.581C55.3648 392.382 135.45 397.895 234.24 397.895Z" fill="#263238"/>
<path d="M126.782 292.81C126.04 289.228 125.054 284.088 124.153 277.878C123.888 276.087 123.634 274.19 123.401 272.23C124.206 272.081 130.607 270.831 133.098 269.051C135.366 267.45 137.803 264.812 137.898 261.844C137.953 261.15 137.86 260.452 137.624 259.796C137.389 259.141 137.017 258.543 136.533 258.042C136.049 257.541 135.464 257.148 134.817 256.89C134.17 256.632 133.476 256.515 132.78 256.546C128.625 256.832 124.789 263.275 123.888 266.889C123.835 267.122 123.464 269.92 123.306 271.361C123.168 270.174 123.03 268.998 122.903 267.768C122.712 265.988 122.564 264.112 122.415 262.289C122.415 261.336 122.32 260.382 122.278 259.417C122.235 258.453 122.278 257.51 122.278 256.535C122.278 255.115 122.384 253.642 122.458 252.179C124.281 252.095 129.611 251.745 131.995 250.537C134.38 249.329 137.294 247.029 137.835 244.178C137.983 243.505 137.989 242.808 137.852 242.132C137.714 241.457 137.437 240.817 137.038 240.255C136.638 239.693 136.126 239.221 135.533 238.869C134.94 238.517 134.28 238.293 133.596 238.212C129.452 237.873 124.673 243.659 123.253 247.093C123.2 247.198 122.977 247.962 122.712 248.862C122.839 247.432 122.956 246.001 123.136 244.56C123.623 240.48 124.259 236.325 124.874 232.161C125.001 231.292 125.118 230.433 125.245 229.564C126.771 229.49 132.557 229.172 135.069 227.911C137.58 226.65 140.368 224.393 140.908 221.553C141.058 220.879 141.065 220.182 140.928 219.505C140.792 218.829 140.515 218.189 140.115 217.627C139.716 217.064 139.202 216.592 138.609 216.24C138.015 215.889 137.354 215.666 136.669 215.586C132.515 215.247 127.746 221.033 126.315 224.467C126.315 224.583 125.997 225.527 125.701 226.502C126.008 224.244 126.273 221.976 126.474 219.73C126.847 215.856 126.957 211.961 126.803 208.072C127.343 208.072 134.126 207.808 136.923 206.409C139.414 205.169 142.222 202.901 142.763 200.05C142.913 199.377 142.92 198.68 142.783 198.005C142.646 197.329 142.369 196.69 141.969 196.128C141.57 195.567 141.056 195.095 140.463 194.745C139.869 194.395 139.208 194.173 138.524 194.094C134.369 193.745 129.6 199.541 128.17 202.964C128.064 203.208 127.11 206.493 126.824 207.67C126.819 207.624 126.819 207.578 126.824 207.532C126.579 203.726 125.997 199.949 125.086 196.246C124.286 192.934 123.295 189.672 122.119 186.475C121.059 183.507 119.904 180.847 118.865 178.505C118.293 177.234 117.742 176.089 117.223 175.029H117.307C117.382 175.029 117.18 169.996 117.138 169.731C116.565 166.064 113.312 159.303 109.2 158.646C108.515 158.555 107.818 158.609 107.155 158.806C106.492 159.002 105.878 159.337 105.353 159.787C104.827 160.237 104.403 160.792 104.108 161.418C103.812 162.043 103.651 162.723 103.637 163.414C103.467 166.35 105.661 169.222 107.77 171.024C109.878 172.825 115.58 174.584 116.979 174.987C117.498 176.11 118.039 177.308 118.621 178.643C119.607 181.006 120.741 183.677 121.684 186.665C121.949 187.46 122.203 188.329 122.468 189.156C121.737 187.842 120.709 186.051 120.582 185.892C118.388 182.893 112.379 178.389 108.437 179.703C107.787 179.938 107.193 180.307 106.695 180.786C106.197 181.266 105.806 181.845 105.547 182.486C105.288 183.127 105.167 183.816 105.192 184.507C105.217 185.197 105.388 185.875 105.692 186.496C106.89 189.177 110.165 190.735 112.878 191.339C115.591 191.943 121.631 190.873 122.924 190.618C123.475 192.473 123.984 194.391 124.429 196.426C125.23 200.082 125.705 203.802 125.849 207.543C125.849 207.765 125.849 207.988 125.849 208.21C125.595 207.49 123.941 203.685 123.804 203.431C121.949 200.251 116.47 195.069 112.401 195.938C111.728 196.101 111.096 196.404 110.548 196.827C110 197.25 109.547 197.784 109.219 198.394C108.891 199.004 108.695 199.676 108.645 200.367C108.594 201.058 108.689 201.751 108.925 202.403C109.825 205.19 112.92 207.087 115.538 207.998C118.558 209.058 125.584 208.38 125.838 208.359C125.896 212.111 125.708 215.864 125.277 219.592C124.969 222.358 124.545 225.145 124.09 227.932C123.74 227.01 122.214 223.471 122.066 223.227C120.222 220.048 114.743 214.876 110.673 215.745C110.001 215.908 109.371 216.211 108.824 216.633C108.277 217.056 107.825 217.589 107.497 218.197C107.169 218.806 106.973 219.477 106.921 220.166C106.87 220.856 106.964 221.548 107.197 222.199C108.098 224.997 111.182 226.883 113.81 227.805C116.756 228.865 123.486 228.218 124.058 228.165C123.846 229.426 123.645 230.698 123.433 231.97C122.723 236.103 122.002 240.257 121.419 244.369C121.207 245.8 121.059 247.209 120.91 248.608C120.349 247.241 119.278 244.782 119.162 244.581C117.307 241.402 111.828 236.219 107.759 237.099C107.087 237.262 106.457 237.565 105.91 237.987C105.362 238.41 104.91 238.943 104.582 239.551C104.255 240.16 104.058 240.831 104.007 241.52C103.955 242.21 104.049 242.902 104.283 243.553C105.184 246.351 108.268 248.237 110.896 249.159C113.524 250.081 119.194 249.678 120.794 249.551C120.55 251.904 120.37 254.246 120.296 256.556C120.296 257.552 120.2 258.58 120.296 259.534C120.391 260.488 120.296 261.463 120.359 262.406C120.487 264.366 120.582 266.189 120.741 268.012C120.815 268.934 120.9 269.803 120.985 270.693C120.624 269.231 120.01 266.91 119.925 266.709C118.579 263.243 113.948 257.34 109.783 257.584C109.095 257.646 108.427 257.851 107.822 258.187C107.218 258.523 106.691 258.982 106.276 259.534C105.86 260.087 105.565 260.72 105.41 261.394C105.255 262.067 105.243 262.766 105.375 263.445C105.841 266.338 108.554 268.68 111.055 269.983C113.768 271.414 120.285 271.838 121.08 271.891C121.292 274.074 121.525 276.204 121.769 278.186C122.553 284.481 123.433 289.684 124.1 293.33C124.768 296.975 125.245 299.042 125.245 299.042C125.277 299.241 125.35 299.432 125.46 299.602C125.569 299.773 125.713 299.918 125.882 300.03C126.05 300.141 126.24 300.217 126.44 300.251C126.639 300.286 126.843 300.279 127.04 300.23C127.236 300.182 127.421 300.093 127.581 299.969C127.741 299.846 127.874 299.691 127.971 299.513C128.069 299.336 128.128 299.14 128.146 298.938C128.163 298.737 128.139 298.534 128.074 298.342C128.074 298.342 127.523 296.403 126.782 292.81Z" fill="#D4E8D1"/>
<path d="M123.221 189.845C123.221 189.845 130.215 187.725 132.642 185.532C134.761 183.688 136.881 180.752 136.574 177.817C136.54 177.127 136.362 176.451 136.051 175.835C135.739 175.218 135.301 174.674 134.765 174.238C134.229 173.802 133.607 173.484 132.94 173.305C132.273 173.125 131.576 173.088 130.893 173.196C126.803 173.959 123.719 180.805 123.253 184.493C123.21 184.811 123.147 189.866 123.221 189.845Z" fill="#D4E8D1"/>
<path d="M126.909 300.229C127.081 300.348 127.226 300.503 127.334 300.683C127.441 300.863 127.508 301.065 127.531 301.273C127.554 301.482 127.531 301.693 127.465 301.892C127.399 302.091 127.291 302.274 127.148 302.428C127.005 302.581 126.831 302.702 126.637 302.783C126.443 302.863 126.234 302.901 126.025 302.893C125.815 302.886 125.609 302.833 125.422 302.739C125.234 302.645 125.069 302.512 124.938 302.348C124.938 302.348 123.39 300.864 120.836 298.204C118.282 295.544 114.658 291.676 110.536 286.865C109.232 285.339 107.876 283.686 106.487 281.99C105.798 282.382 100.129 285.625 97.0766 285.922C94.3107 286.187 90.7181 285.763 88.7258 283.601C88.2414 283.109 87.8659 282.52 87.6237 281.873C87.3815 281.226 87.278 280.535 87.32 279.846C87.362 279.156 87.5484 278.483 87.8673 277.87C88.1862 277.258 88.6303 276.719 89.1709 276.289C92.5091 273.788 99.6306 276.162 102.662 278.313C102.842 278.44 104.633 280.03 105.735 281.047C105.173 280.348 104.675 279.68 104.05 278.927C102.916 277.497 101.824 276.034 100.648 274.455L99.0054 272.103C98.4331 271.329 97.9456 270.439 97.3946 269.602C96.1759 267.631 95.0419 265.575 93.9504 263.476C92.6893 264.462 88.1747 267.917 85.4724 268.606C82.77 269.294 79.1138 269.411 76.8672 267.546C76.3127 267.132 75.8515 266.607 75.5135 266.004C75.1755 265.4 74.9682 264.732 74.9052 264.044C74.8423 263.355 74.925 262.661 75.148 262.006C75.371 261.352 75.7292 260.751 76.1995 260.244C79.1244 257.277 86.5215 258.538 89.8385 260.244C90.0505 260.35 92.2972 261.812 93.5159 262.639C92.8694 261.367 92.2124 260.106 91.5977 258.803C89.8173 255.051 88.1323 251.194 86.4367 247.347C85.9175 246.171 85.377 245.005 84.8577 243.829C84.4126 244.189 79.135 248.417 76.1147 249.18C73.423 249.869 69.7562 249.986 67.5096 248.12C66.9551 247.707 66.4939 247.182 66.1559 246.578C65.8178 245.975 65.6106 245.307 65.5476 244.619C65.4847 243.93 65.5674 243.236 65.7904 242.581C66.0133 241.926 66.3716 241.326 66.8419 240.819C69.7562 237.852 77.1533 239.113 80.4809 240.819C80.7353 240.946 83.9675 243.055 84.7199 243.627C83.5542 241.052 82.3779 238.498 81.1062 236.018C79.4082 232.67 77.4967 229.435 75.3835 226.332C75.1716 226.502 69.6927 230.942 66.5876 231.726C63.8958 232.404 60.2291 232.532 57.9824 230.666C57.4273 230.253 56.9656 229.728 56.6276 229.124C56.2896 228.52 56.0828 227.852 56.0208 227.162C55.9588 226.473 56.0429 225.779 56.2677 225.124C56.4925 224.47 56.8529 223.87 57.3253 223.365C60.2397 220.397 67.6367 221.658 70.9538 223.365C71.2187 223.492 74.6947 225.76 75.2987 226.215C75.1716 226.035 75.0656 225.844 74.9384 225.664C72.719 222.626 70.2367 219.789 67.5202 217.186C66.0365 215.724 64.5423 214.41 63.0586 213.159C62.1154 214.092 57.7598 218.299 55.0787 219.316C52.3975 220.334 48.9003 220.811 46.4099 219.232C45.8138 218.883 45.298 218.412 44.896 217.85C44.4941 217.288 44.215 216.648 44.0771 215.971C43.9391 215.294 43.9453 214.596 44.0952 213.921C44.2452 213.247 44.5356 212.612 44.9474 212.057C47.5226 208.782 55.0151 209.217 58.5017 210.51C58.6924 210.584 60.5364 211.506 61.8717 212.195C61.1934 211.644 60.5046 211.061 59.8476 210.552C57.3677 208.602 54.9833 206.97 52.8638 205.55C51.6451 204.755 50.5323 204.056 49.4832 203.431C48.0843 203.865 42.4358 205.55 39.6169 205.201C36.7979 204.851 33.4385 203.674 31.9549 201.131C31.5892 200.545 31.3506 199.889 31.2543 199.205C31.1581 198.521 31.2064 197.824 31.3962 197.16C31.5859 196.496 31.9129 195.879 32.356 195.349C32.799 194.819 33.3484 194.388 33.9684 194.084C37.7623 192.367 44.2056 196.203 46.6854 198.959C46.8974 199.202 49.8647 203.304 49.7799 203.325H49.6951C50.7549 203.918 51.8146 204.575 52.9804 205.317C55.0999 206.695 57.5691 208.274 60.1019 210.171C62.8431 212.19 65.4684 214.363 67.9652 216.678C70.7631 219.276 73.3303 222.113 75.6379 225.156C75.6562 225.198 75.6813 225.238 75.712 225.272C75.3093 224.128 74.292 220.864 74.239 220.609C73.5396 216.964 74.3344 209.493 77.9799 207.49C78.5951 207.174 79.2698 206.992 79.96 206.955C80.6502 206.918 81.3406 207.026 81.9862 207.273C82.6319 207.52 83.2184 207.9 83.7076 208.388C84.1968 208.876 84.5778 209.462 84.8259 210.107C85.9704 212.82 84.8259 216.264 83.4906 218.67C81.9222 221.383 76.4009 225.336 75.9664 225.643C78.2259 228.797 80.2757 232.097 82.1023 235.52C83.1621 237.512 84.2219 239.547 85.1968 241.603C84.8789 240.596 84.6034 239.695 84.5822 239.568C83.8827 235.923 84.6669 228.452 88.3231 226.449C88.939 226.134 89.6143 225.952 90.305 225.915C90.9958 225.879 91.6865 225.988 92.3322 226.236C92.978 226.484 93.5643 226.865 94.0531 227.354C94.5419 227.844 94.9221 228.431 95.1691 229.077C96.3136 231.779 95.1691 235.223 93.8338 237.629C92.4985 240.035 87.7826 243.532 86.5427 244.433C86.9136 245.227 87.2951 246.012 87.666 246.806C89.457 250.611 91.2162 254.426 93.0602 258.114C93.7066 259.407 94.3955 260.657 95.0737 261.918C94.7982 261.028 94.5756 260.276 94.5438 260.149C93.8444 256.503 94.6392 249.042 98.2848 247.04C98.9 246.724 99.5746 246.542 100.265 246.505C100.955 246.468 101.645 246.576 102.291 246.823C102.937 247.07 103.523 247.45 104.012 247.938C104.502 248.426 104.883 249.012 105.131 249.657C106.275 252.36 105.184 255.814 103.795 258.22C102.407 260.626 98.2 263.773 96.7269 264.854C97.4688 266.115 98.2 267.387 98.9736 268.584C99.5247 269.39 100.033 270.206 100.584 270.979L102.28 273.3C103.414 274.731 104.569 276.225 105.714 277.592C106.498 278.557 107.261 279.457 108.034 280.369C107.367 279.086 106.127 276.543 106.053 276.321C104.802 272.813 104.453 265.32 107.759 262.787C108.319 262.383 108.958 262.1 109.635 261.958C110.311 261.817 111.01 261.819 111.686 261.965C112.361 262.111 112.999 262.397 113.556 262.805C114.114 263.214 114.58 263.735 114.923 264.335C116.46 266.836 115.898 270.418 114.923 273.003C113.863 275.854 109.168 280.422 108.564 280.994C109.847 282.499 111.097 283.94 112.316 285.297C116.491 289.97 120.147 293.711 122.744 296.297C125.34 298.883 126.909 300.229 126.909 300.229ZM62.9738 212.343C62.9738 212.343 67.6261 206.695 68.4527 203.547C69.1522 200.866 69.3005 197.189 67.4884 194.942C67.079 194.384 66.5567 193.918 65.9554 193.575C65.3541 193.232 64.6872 193.02 63.9984 192.952C63.3095 192.884 62.614 192.962 61.9573 193.181C61.3005 193.399 60.6972 193.754 60.1867 194.222C57.1982 197.115 58.4063 204.522 60.0489 207.861C60.1443 208.147 62.9208 212.396 62.9738 212.343Z" fill="#D4E8D1"/>
<path opacity="0.1" d="M126.909 300.229C127.081 300.348 127.226 300.503 127.334 300.683C127.441 300.863 127.508 301.065 127.531 301.273C127.554 301.482 127.531 301.693 127.465 301.892C127.399 302.091 127.291 302.274 127.148 302.428C127.005 302.581 126.831 302.702 126.637 302.783C126.443 302.863 126.234 302.901 126.025 302.893C125.815 302.886 125.609 302.833 125.422 302.739C125.234 302.645 125.069 302.512 124.938 302.348C124.938 302.348 123.39 300.864 120.836 298.204C118.282 295.544 114.658 291.676 110.536 286.865C109.232 285.339 107.876 283.686 106.487 281.99C105.798 282.382 100.129 285.625 97.0766 285.922C94.3107 286.187 90.7181 285.763 88.7258 283.601C88.2414 283.109 87.8659 282.52 87.6237 281.873C87.3815 281.226 87.278 280.535 87.32 279.846C87.362 279.156 87.5484 278.483 87.8673 277.87C88.1862 277.258 88.6303 276.719 89.1709 276.289C92.5091 273.788 99.6306 276.162 102.662 278.313C102.842 278.44 104.633 280.03 105.735 281.047C105.173 280.348 104.675 279.68 104.05 278.927C102.916 277.497 101.824 276.034 100.648 274.455L99.0054 272.103C98.4331 271.329 97.9456 270.439 97.3946 269.602C96.1759 267.631 95.0419 265.575 93.9504 263.476C92.6893 264.462 88.1747 267.917 85.4724 268.606C82.77 269.294 79.1138 269.411 76.8672 267.546C76.3127 267.132 75.8515 266.607 75.5135 266.004C75.1755 265.4 74.9682 264.732 74.9052 264.044C74.8423 263.355 74.925 262.661 75.148 262.006C75.371 261.352 75.7292 260.751 76.1995 260.244C79.1244 257.277 86.5215 258.538 89.8385 260.244C90.0505 260.35 92.2972 261.812 93.5159 262.639C92.8694 261.367 92.2124 260.106 91.5977 258.803C89.8173 255.051 88.1323 251.194 86.4367 247.347C85.9175 246.171 85.377 245.005 84.8577 243.829C84.4126 244.189 79.135 248.417 76.1147 249.18C73.423 249.869 69.7562 249.986 67.5096 248.12C66.9551 247.707 66.4939 247.182 66.1559 246.578C65.8178 245.975 65.6106 245.307 65.5476 244.619C65.4847 243.93 65.5674 243.236 65.7904 242.581C66.0133 241.926 66.3716 241.326 66.8419 240.819C69.7562 237.852 77.1533 239.113 80.4809 240.819C80.7353 240.946 83.9675 243.055 84.7199 243.627C83.5542 241.052 82.3779 238.498 81.1062 236.018C79.4082 232.67 77.4967 229.435 75.3835 226.332C75.1716 226.502 69.6927 230.942 66.5876 231.726C63.8958 232.404 60.2291 232.532 57.9824 230.666C57.4273 230.253 56.9656 229.728 56.6276 229.124C56.2896 228.52 56.0828 227.852 56.0208 227.162C55.9588 226.473 56.0429 225.779 56.2677 225.124C56.4925 224.47 56.8529 223.87 57.3253 223.365C60.2397 220.397 67.6367 221.658 70.9538 223.365C71.2187 223.492 74.6947 225.76 75.2987 226.215C75.1716 226.035 75.0656 225.844 74.9384 225.664C72.719 222.626 70.2367 219.789 67.5202 217.186C66.0365 215.724 64.5423 214.41 63.0586 213.159C62.1154 214.092 57.7598 218.299 55.0787 219.316C52.3975 220.334 48.9003 220.811 46.4099 219.232C45.8138 218.883 45.298 218.412 44.896 217.85C44.4941 217.288 44.215 216.648 44.0771 215.971C43.9391 215.294 43.9453 214.596 44.0952 213.921C44.2452 213.247 44.5356 212.612 44.9474 212.057C47.5226 208.782 55.0151 209.217 58.5017 210.51C58.6924 210.584 60.5364 211.506 61.8717 212.195C61.1934 211.644 60.5046 211.061 59.8476 210.552C57.3677 208.602 54.9833 206.97 52.8638 205.55C51.6451 204.755 50.5323 204.056 49.4832 203.431C48.0843 203.865 42.4358 205.55 39.6169 205.201C36.7979 204.851 33.4385 203.674 31.9549 201.131C31.5892 200.545 31.3506 199.889 31.2543 199.205C31.1581 198.521 31.2064 197.824 31.3962 197.16C31.5859 196.496 31.9129 195.879 32.356 195.349C32.799 194.819 33.3484 194.388 33.9684 194.084C37.7623 192.367 44.2056 196.203 46.6854 198.959C46.8974 199.202 49.8647 203.304 49.7799 203.325H49.6951C50.7549 203.918 51.8146 204.575 52.9804 205.317C55.0999 206.695 57.5691 208.274 60.1019 210.171C62.8431 212.19 65.4684 214.363 67.9652 216.678C70.7631 219.276 73.3303 222.113 75.6379 225.156C75.6562 225.198 75.6813 225.238 75.712 225.272C75.3093 224.128 74.292 220.864 74.239 220.609C73.5396 216.964 74.3344 209.493 77.9799 207.49C78.5951 207.174 79.2698 206.992 79.96 206.955C80.6502 206.918 81.3406 207.026 81.9862 207.273C82.6319 207.52 83.2184 207.9 83.7076 208.388C84.1968 208.876 84.5778 209.462 84.8259 210.107C85.9704 212.82 84.8259 216.264 83.4906 218.67C81.9222 221.383 76.4009 225.336 75.9664 225.643C78.2259 228.797 80.2757 232.097 82.1023 235.52C83.1621 237.512 84.2219 239.547 85.1968 241.603C84.8789 240.596 84.6034 239.695 84.5822 239.568C83.8827 235.923 84.6669 228.452 88.3231 226.449C88.939 226.134 89.6143 225.952 90.305 225.915C90.9958 225.879 91.6865 225.988 92.3322 226.236C92.978 226.484 93.5643 226.865 94.0531 227.354C94.5419 227.844 94.9221 228.431 95.1691 229.077C96.3136 231.779 95.1691 235.223 93.8338 237.629C92.4985 240.035 87.7826 243.532 86.5427 244.433C86.9136 245.227 87.2951 246.012 87.666 246.806C89.457 250.611 91.2162 254.426 93.0602 258.114C93.7066 259.407 94.3955 260.657 95.0737 261.918C94.7982 261.028 94.5756 260.276 94.5438 260.149C93.8444 256.503 94.6392 249.042 98.2848 247.04C98.9 246.724 99.5746 246.542 100.265 246.505C100.955 246.468 101.645 246.576 102.291 246.823C102.937 247.07 103.523 247.45 104.012 247.938C104.502 248.426 104.883 249.012 105.131 249.657C106.275 252.36 105.184 255.814 103.795 258.22C102.407 260.626 98.2 263.773 96.7269 264.854C97.4688 266.115 98.2 267.387 98.9736 268.584C99.5247 269.39 100.033 270.206 100.584 270.979L102.28 273.3C103.414 274.731 104.569 276.225 105.714 277.592C106.498 278.557 107.261 279.457 108.034 280.369C107.367 279.086 106.127 276.543 106.053 276.321C104.802 272.813 104.453 265.32 107.759 262.787C108.319 262.383 108.958 262.1 109.635 261.958C110.311 261.817 111.01 261.819 111.686 261.965C112.361 262.111 112.999 262.397 113.556 262.805C114.114 263.214 114.58 263.735 114.923 264.335C116.46 266.836 115.898 270.418 114.923 273.003C113.863 275.854 109.168 280.422 108.564 280.994C109.847 282.499 111.097 283.94 112.316 285.297C116.491 289.97 120.147 293.711 122.744 296.297C125.34 298.883 126.909 300.229 126.909 300.229ZM62.9738 212.343C62.9738 212.343 67.6261 206.695 68.4527 203.547C69.1522 200.866 69.3005 197.189 67.4884 194.942C67.079 194.384 66.5567 193.918 65.9554 193.575C65.3541 193.232 64.6872 193.02 63.9984 192.952C63.3095 192.884 62.614 192.962 61.9573 193.181C61.3005 193.399 60.6972 193.754 60.1867 194.222C57.1982 197.115 58.4063 204.522 60.0489 207.861C60.1443 208.147 62.9208 212.396 62.9738 212.343Z" fill="black"/>
<path d="M99.7472 370.119C98.8464 366.569 97.6277 361.482 96.462 355.283C96.1229 353.513 95.7838 351.616 95.4658 349.677C96.25 349.486 102.598 347.96 105.004 346.084C107.197 344.378 109.518 341.601 109.486 338.666C109.502 337.979 109.373 337.296 109.108 336.662C108.844 336.027 108.449 335.456 107.95 334.983C107.45 334.511 106.858 334.149 106.21 333.92C105.562 333.69 104.873 333.6 104.188 333.653C100.044 334.119 96.4938 340.732 95.7096 344.378C95.7096 344.611 95.4128 347.43 95.3281 348.871C95.1267 347.695 94.936 346.529 94.7558 345.3C94.4909 343.541 94.2577 341.665 94.0246 339.853L93.7702 336.991C93.6536 336.016 93.6748 335.073 93.6218 334.109C93.6218 332.689 93.6218 331.216 93.6218 329.753C95.434 329.584 100.743 329.001 103.096 327.687C105.449 326.373 108.236 323.946 108.639 321.042C108.759 320.361 108.735 319.662 108.567 318.991C108.399 318.32 108.092 317.692 107.665 317.148C107.238 316.604 106.701 316.156 106.089 315.834C105.477 315.511 104.804 315.322 104.113 315.277C99.9592 315.107 95.4446 321.106 94.1623 324.603C94.1623 324.709 93.9292 325.472 93.7172 326.383C93.7172 324.953 93.8338 323.533 93.9398 322.081C94.2577 317.969 94.7028 313.804 95.1373 309.618C95.2221 308.738 95.2963 307.869 95.3916 307C96.9177 306.863 102.672 306.28 105.131 304.881C107.589 303.482 110.271 301.14 110.684 298.226C110.803 297.545 110.777 296.846 110.609 296.176C110.44 295.506 110.133 294.878 109.706 294.335C109.279 293.791 108.743 293.343 108.132 293.02C107.521 292.697 106.848 292.507 106.159 292.461C102.004 292.302 97.4794 298.3 96.2076 301.786C96.2076 301.914 95.9321 302.846 95.6884 303.853C95.8897 301.574 96.0593 299.307 96.1653 297.049C96.3638 293.164 96.3 289.269 95.9745 285.392C96.515 285.392 103.276 284.799 106.021 283.273C108.437 281.927 111.161 279.532 111.563 276.617C111.684 275.936 111.66 275.237 111.492 274.566C111.324 273.895 111.017 273.267 110.59 272.723C110.163 272.179 109.626 271.731 109.014 271.409C108.402 271.086 107.729 270.897 107.038 270.852C102.884 270.693 98.3695 276.691 97.0872 280.178C97.0025 280.422 96.1971 283.739 95.9533 284.936C95.9533 284.936 95.9533 284.841 95.9533 284.799C95.5472 281.006 94.8024 277.257 93.7278 273.597C92.7792 270.327 91.6434 267.114 90.326 263.974C89.1391 261.05 87.8674 258.443 86.7229 256.143C86.0976 254.903 85.5042 253.79 84.9319 252.741H85.0167C85.0908 252.741 84.6775 247.728 84.614 247.442C83.8827 243.797 80.3749 237.184 76.1359 236.707C75.4507 236.653 74.7619 236.744 74.114 236.973C73.466 237.202 72.8732 237.565 72.374 238.037C71.8747 238.51 71.48 239.081 71.2153 239.716C70.9506 240.35 70.8218 241.033 70.8372 241.72C70.8372 244.655 73.1156 247.432 75.3093 249.138C77.503 250.844 83.2575 252.317 84.6775 252.699C85.2498 253.758 85.8433 254.967 86.4791 256.27C87.5389 258.591 88.7682 261.208 89.8915 264.155C90.1989 264.939 90.485 265.787 90.7817 266.613C89.9975 265.331 88.8848 263.582 88.7576 263.434C86.4367 260.541 80.2796 256.312 76.3479 257.796C75.7098 258.061 75.1345 258.457 74.6594 258.959C74.1843 259.46 73.82 260.056 73.5902 260.708C73.3603 261.36 73.27 262.052 73.3252 262.741C73.3804 263.43 73.5798 264.099 73.9105 264.706C75.2246 267.334 78.5628 268.722 81.3287 269.231C84.0947 269.739 90.0505 268.372 91.3328 268.054C91.9686 269.888 92.5727 271.785 93.092 273.798C94.0795 277.434 94.7357 281.151 95.0525 284.905C95.0525 285.116 95.0525 285.35 95.0525 285.562C94.777 284.862 92.933 281.121 92.8058 280.877C90.8135 277.698 85.112 272.855 81.085 273.904C80.4206 274.096 79.8042 274.426 79.2761 274.873C78.7479 275.319 78.3198 275.872 78.0198 276.495C77.7197 277.118 77.5545 277.797 77.5348 278.489C77.5152 279.18 77.6416 279.867 77.9057 280.507C78.9655 283.262 82.1447 285.021 84.7517 285.805C87.8144 286.727 94.7982 285.742 95.0631 285.71C95.2763 289.456 95.2515 293.211 94.9889 296.954C94.7982 299.73 94.5014 302.528 94.1729 305.337C93.7914 304.436 92.0534 300.96 91.9474 300.727C89.9551 297.547 84.2536 292.704 80.2266 293.753C79.5622 293.945 78.9458 294.275 78.4176 294.722C77.8895 295.168 77.4614 295.721 77.1614 296.344C76.8613 296.967 76.6961 297.646 76.6764 298.338C76.6568 299.029 76.7832 299.717 77.0473 300.356C78.1071 303.111 81.2863 304.86 83.8933 305.654C86.8818 306.545 93.5795 305.654 94.1517 305.559C93.9928 306.831 93.855 308.113 93.696 309.385C93.1768 313.55 92.6363 317.736 92.223 321.869C92.0852 323.299 92.0004 324.719 91.9051 326.108C91.2798 324.772 90.1035 322.356 89.9763 322.165C87.984 318.986 82.2931 314.143 78.319 315.192C77.6556 315.386 77.0403 315.716 76.513 316.163C75.9858 316.61 75.5584 317.162 75.2585 317.785C74.9587 318.408 74.7932 319.086 74.7728 319.777C74.7523 320.468 74.8773 321.155 75.1398 321.795C76.1995 324.55 79.3788 326.298 81.9858 327.093C84.5928 327.888 90.3048 327.252 91.8945 327.04C91.7567 329.404 91.6719 331.756 91.7037 334.066C91.7037 335.073 91.7037 336.091 91.7991 337.044L91.9898 339.916C92.2018 341.866 92.3819 343.678 92.6151 345.501C92.7317 346.413 92.8588 347.271 92.986 348.161C92.5515 346.72 91.8415 344.431 91.7567 344.229C90.2518 340.828 85.3982 335.137 81.2228 335.561C80.538 335.651 79.88 335.885 79.2914 336.246C78.7027 336.608 78.1967 337.089 77.8059 337.658C77.4152 338.228 77.1486 338.873 77.0234 339.553C76.8982 340.232 76.9172 340.93 77.0791 341.601C77.6726 344.484 80.5339 346.699 83.0455 347.886C85.8115 349.2 92.3396 349.337 93.145 349.348C93.4523 351.531 93.7702 353.64 94.1093 355.622C95.1691 361.864 96.2288 367.035 97.0978 370.639C97.9668 374.242 98.4967 376.298 98.4967 376.298C98.6267 376.644 98.8829 376.928 99.2138 377.092C99.5446 377.257 99.9256 377.29 100.28 377.186C100.635 377.081 100.936 376.846 101.124 376.528C101.313 376.21 101.373 375.832 101.294 375.471C101.294 375.471 100.648 373.68 99.7472 370.119Z" fill="#D4E8D1"/>
<path d="M91.6401 267.408C91.6401 267.408 98.5391 264.971 100.86 262.692C102.842 260.742 104.834 257.722 104.463 254.808C104.398 254.119 104.189 253.451 103.849 252.849C103.51 252.246 103.047 251.722 102.491 251.31C101.935 250.898 101.299 250.608 100.623 250.458C99.948 250.309 99.2487 250.303 98.5709 250.441C94.5226 251.385 91.7461 258.358 91.4388 262.099C91.407 262.406 91.5659 267.44 91.6401 267.408Z" fill="#D4E8D1"/>
<path d="M95.7732 371.613C93.0708 369.155 89.2557 365.573 84.8683 361.08C83.6072 359.787 82.2825 358.398 80.9472 356.957C81.4983 356.364 85.9386 351.584 86.9242 348.691C87.8144 346.063 88.2171 342.47 86.5639 340.033C86.1956 339.449 85.7084 338.948 85.1339 338.565C84.5594 338.182 83.9107 337.924 83.2298 337.808C82.5489 337.692 81.8513 337.72 81.1823 337.892C80.5133 338.064 79.888 338.374 79.347 338.804C76.1677 341.474 76.8354 348.956 78.2342 352.39C78.319 352.612 79.6755 355.103 80.3538 356.353C79.5377 355.484 78.7323 354.615 77.9057 353.682C76.7082 352.368 75.4895 350.927 74.292 349.549L72.4904 347.303C71.8651 346.55 71.3671 345.756 70.7842 344.982C69.9576 343.827 69.1628 342.587 68.368 341.347C69.788 340.213 73.8999 336.79 75.1398 334.406C76.3797 332.021 77.3653 328.45 76.0936 325.8C75.8183 325.166 75.4124 324.597 74.9024 324.131C74.3924 323.664 73.7897 323.31 73.1337 323.092C72.4777 322.874 71.7831 322.797 71.0952 322.865C70.4073 322.934 69.7416 323.147 69.1416 323.49C65.5808 325.61 65.1251 333.134 65.9623 336.748C65.9623 336.875 66.259 337.617 66.577 338.496C65.8351 337.267 65.0933 336.048 64.3833 334.776C62.3804 331.173 60.4516 327.454 58.5017 323.723C58.099 322.95 57.6857 322.176 57.2723 321.402C58.4699 320.449 62.9526 316.782 64.2561 314.281C65.5596 311.78 66.471 308.325 65.2099 305.676C64.9346 305.042 64.5287 304.473 64.0187 304.006C63.5087 303.539 62.906 303.185 62.25 302.967C61.594 302.749 60.8994 302.672 60.2115 302.741C59.5237 302.809 58.858 303.022 58.2579 303.365C54.6972 305.485 54.2415 313.009 55.0787 316.623C55.0787 316.761 55.4284 317.683 55.7887 318.636C54.7289 316.623 53.5844 314.641 52.4293 312.691C50.4486 309.353 48.2501 306.149 45.8482 303.1C46.2827 302.761 51.6239 298.575 53.0651 295.799C54.3474 293.34 55.2906 289.843 54.0189 287.194C53.7447 286.559 53.3395 285.989 52.83 285.521C52.3204 285.053 51.7179 284.698 51.0618 284.479C50.4057 284.26 49.7107 284.182 49.0223 284.25C48.334 284.318 47.6677 284.53 47.0669 284.873C43.5062 286.992 43.0505 294.527 43.8877 298.141C43.9513 298.395 45.117 301.606 45.5621 302.74L45.4879 302.624C43.0482 299.692 40.3568 296.979 37.4444 294.516C34.8858 292.313 32.2038 290.258 29.4115 288.359C26.8045 286.579 24.3035 285.106 22.0886 283.824C20.8805 283.135 19.7571 282.531 18.7186 281.98H18.7927C18.8669 281.98 15.7407 277.984 15.5075 277.741C12.8899 275.102 6.28766 271.552 2.57853 273.438C1.97074 273.767 1.43903 274.22 1.01806 274.768C0.597089 275.315 0.296308 275.946 0.135326 276.618C-0.025656 277.29 -0.043225 277.988 0.0837624 278.667C0.21075 279.346 0.479442 279.991 0.872327 280.56C2.46196 283.039 5.92734 284.078 8.7039 284.29C11.4804 284.502 17.1077 282.573 18.4748 282.086C19.5346 282.679 20.7003 283.326 21.9508 284.078C24.1339 285.403 26.5925 286.929 29.1465 288.762C29.8354 289.25 30.5454 289.822 31.266 290.32C29.9095 289.684 28.0126 288.847 27.8218 288.783C24.2823 287.649 16.7792 287.533 14.3524 290.903C13.9674 291.476 13.7072 292.125 13.5883 292.805C13.4695 293.486 13.4948 294.184 13.6626 294.854C13.8304 295.524 14.137 296.151 14.5625 296.696C14.988 297.24 15.5229 297.689 16.1328 298.014C18.6868 299.466 22.2369 298.798 24.7909 297.706C27.3449 296.615 31.5946 292.174 32.4953 291.21C34.032 292.386 35.5792 293.637 37.1265 295.025C39.9516 297.515 42.5477 300.253 44.8838 303.206C45.0216 303.376 45.1382 303.567 45.276 303.747C44.6507 303.312 41.0369 301.204 40.8038 301.087C37.4126 299.572 29.9625 298.628 27.186 301.733C26.7393 302.26 26.4085 302.875 26.2149 303.539C26.0213 304.202 25.9692 304.898 26.0622 305.583C26.1551 306.267 26.3909 306.924 26.7543 307.512C27.1177 308.099 27.6006 308.604 28.1716 308.993C30.5454 310.72 34.1592 310.445 36.8085 309.639C39.8712 308.717 45.1594 304.044 45.3607 303.874C47.6122 306.878 49.6654 310.025 51.5073 313.295C52.885 315.712 54.1779 318.213 55.4496 320.714C54.6336 320.173 51.3059 318.213 51.0516 318.096C47.6604 316.581 40.2103 315.648 37.4232 318.742C36.9755 319.269 36.6439 319.885 36.4502 320.549C36.2565 321.212 36.205 321.91 36.299 322.595C36.393 323.28 36.6304 323.937 36.9958 324.524C37.3612 325.111 37.8462 325.615 38.4194 326.002C40.7932 327.74 44.3964 327.454 47.0563 326.659C50.0448 325.747 55.1316 321.296 55.5344 320.926C56.1172 322.07 56.7001 323.215 57.2723 324.359C59.1375 328.132 60.9815 331.905 62.9314 335.582C63.5991 336.854 64.3091 338.093 65.0509 339.323C63.7898 338.549 61.4796 337.203 61.2676 337.097C57.8764 335.582 50.4263 334.649 47.6498 337.744C47.2032 338.271 46.8723 338.886 46.6787 339.549C46.4851 340.212 46.4331 340.908 46.526 341.593C46.6189 342.277 46.8547 342.935 47.2181 343.522C47.5815 344.11 48.0644 344.614 48.6354 345.003C51.0092 346.741 54.6124 346.455 57.2723 345.66C59.9323 344.865 64.2985 341.199 65.5172 340.149C66.7041 342.195 67.9229 344.208 69.2264 346.116C69.8092 346.932 70.3497 347.801 70.9432 348.553L72.6917 350.832C73.9422 352.347 75.0974 353.767 76.2949 355.145L78.0647 357.169C76.9096 356.194 75.055 354.689 74.8854 354.573C71.7062 352.559 64.5422 350.503 61.3206 353.142C60.7978 353.595 60.3762 354.153 60.0834 354.78C59.7906 355.407 59.633 356.089 59.621 356.78C59.609 357.472 59.7428 358.159 60.0138 358.795C60.2847 359.432 60.6866 360.004 61.1934 360.475C63.3129 362.542 66.8949 362.818 69.6714 362.425C72.7023 361.991 78.2236 358.504 78.9019 358.07C80.3538 359.712 81.795 361.249 83.1409 362.765C87.4647 367.396 91.248 371.094 93.9292 373.638C96.6104 376.181 98.1682 377.601 98.1682 377.601C98.4677 377.821 98.8394 377.918 99.208 377.873C99.5767 377.829 99.9146 377.646 100.153 377.361C100.392 377.077 100.513 376.712 100.493 376.342C100.473 375.971 100.312 375.622 100.044 375.365C100.044 375.365 98.4861 374.083 95.7732 371.613Z" fill="#D4E8D1"/>
<path d="M32.3576 290.426C32.3576 290.426 36.7555 284.587 37.4444 281.397C38.0273 278.684 38.0167 275.038 36.0985 272.834C35.6636 272.297 35.1207 271.857 34.505 271.543C33.8893 271.228 33.2145 271.047 32.5242 271.01C31.834 270.973 31.1437 271.081 30.4979 271.328C29.8522 271.575 29.2654 271.954 28.7756 272.442C25.9143 275.462 27.4509 282.817 29.2313 286.07C29.4115 286.356 32.3046 290.479 32.3576 290.426Z" fill="#D4E8D1"/>
<g opacity="0.1">
<path d="M99.7472 370.119C98.8464 366.569 97.6277 361.482 96.462 355.283C96.1229 353.513 95.7838 351.616 95.4658 349.677C96.25 349.486 102.598 347.96 105.004 346.084C107.197 344.378 109.518 341.601 109.486 338.666C109.502 337.979 109.373 337.296 109.108 336.662C108.844 336.027 108.449 335.456 107.95 334.983C107.45 334.511 106.858 334.149 106.21 333.92C105.562 333.69 104.873 333.6 104.188 333.653C100.044 334.119 96.4938 340.732 95.7096 344.378C95.7096 344.611 95.4128 347.43 95.3281 348.871C95.1267 347.695 94.936 346.529 94.7558 345.3C94.4909 343.541 94.2577 341.665 94.0246 339.853L93.7702 336.991C93.6536 336.016 93.6748 335.073 93.6218 334.109C93.6218 332.689 93.6218 331.216 93.6218 329.753C95.434 329.584 100.743 329.001 103.096 327.687C105.449 326.373 108.236 323.946 108.639 321.042C108.759 320.361 108.735 319.662 108.567 318.991C108.399 318.32 108.092 317.692 107.665 317.148C107.238 316.604 106.701 316.156 106.089 315.834C105.477 315.511 104.804 315.322 104.113 315.277C99.9592 315.107 95.4446 321.106 94.1623 324.603C94.1623 324.709 93.9292 325.472 93.7172 326.383C93.7172 324.953 93.8338 323.533 93.9398 322.081C94.2577 317.969 94.7028 313.804 95.1373 309.618C95.2221 308.738 95.2963 307.869 95.3916 307C96.9177 306.863 102.672 306.28 105.131 304.881C107.589 303.482 110.271 301.14 110.684 298.226C110.803 297.545 110.777 296.846 110.609 296.176C110.44 295.506 110.133 294.878 109.706 294.335C109.279 293.791 108.743 293.343 108.132 293.02C107.521 292.697 106.848 292.507 106.159 292.461C102.004 292.302 97.4794 298.3 96.2076 301.786C96.2076 301.914 95.9321 302.846 95.6884 303.853C95.8897 301.574 96.0593 299.307 96.1653 297.049C96.3638 293.164 96.3 289.269 95.9745 285.392C96.515 285.392 103.276 284.799 106.021 283.273C108.437 281.927 111.161 279.532 111.563 276.617C111.684 275.936 111.66 275.237 111.492 274.566C111.324 273.895 111.017 273.267 110.59 272.723C110.163 272.179 109.626 271.731 109.014 271.409C108.402 271.086 107.729 270.897 107.038 270.852C102.884 270.693 98.3695 276.691 97.0872 280.178C97.0025 280.422 96.1971 283.739 95.9533 284.936C95.9533 284.936 95.9533 284.841 95.9533 284.799C95.5472 281.006 94.8024 277.257 93.7278 273.597C92.7792 270.327 91.6434 267.114 90.326 263.974C89.1391 261.05 87.8674 258.443 86.7229 256.143C86.0976 254.903 85.5042 253.79 84.9319 252.741H85.0167C85.0908 252.741 84.6775 247.728 84.614 247.442C83.8827 243.797 80.3749 237.184 76.1359 236.707C75.4507 236.653 74.7619 236.744 74.114 236.973C73.466 237.202 72.8732 237.565 72.374 238.037C71.8747 238.51 71.48 239.081 71.2153 239.716C70.9506 240.35 70.8218 241.033 70.8372 241.72C70.8372 244.655 73.1156 247.432 75.3093 249.138C77.503 250.844 83.2575 252.317 84.6775 252.699C85.2498 253.758 85.8433 254.967 86.4791 256.27C87.5389 258.591 88.7682 261.208 89.8915 264.155C90.1989 264.939 90.485 265.787 90.7817 266.613C89.9975 265.331 88.8848 263.582 88.7576 263.434C86.4367 260.541 80.2796 256.312 76.3479 257.796C75.7098 258.061 75.1345 258.457 74.6594 258.959C74.1843 259.46 73.82 260.056 73.5902 260.708C73.3603 261.36 73.27 262.052 73.3252 262.741C73.3804 263.43 73.5798 264.099 73.9105 264.706C75.2246 267.334 78.5628 268.722 81.3287 269.231C84.0947 269.739 90.0505 268.372 91.3328 268.054C91.9686 269.888 92.5727 271.785 93.092 273.798C94.0795 277.434 94.7357 281.151 95.0525 284.905C95.0525 285.116 95.0525 285.35 95.0525 285.562C94.777 284.862 92.933 281.121 92.8058 280.877C90.8135 277.698 85.112 272.855 81.085 273.904C80.4206 274.096 79.8042 274.426 79.2761 274.873C78.7479 275.319 78.3198 275.872 78.0198 276.495C77.7197 277.118 77.5545 277.797 77.5348 278.489C77.5152 279.18 77.6416 279.867 77.9057 280.507C78.9655 283.262 82.1447 285.021 84.7517 285.805C87.8144 286.727 94.7982 285.742 95.0631 285.71C95.2763 289.456 95.2515 293.211 94.9889 296.954C94.7982 299.73 94.5014 302.528 94.1729 305.337C93.7914 304.436 92.0534 300.96 91.9474 300.727C89.9551 297.547 84.2536 292.704 80.2266 293.753C79.5622 293.945 78.9458 294.275 78.4176 294.722C77.8895 295.168 77.4614 295.721 77.1614 296.344C76.8613 296.967 76.6961 297.646 76.6764 298.338C76.6568 299.029 76.7832 299.717 77.0473 300.356C78.1071 303.111 81.2863 304.86 83.8933 305.654C86.8818 306.545 93.5795 305.654 94.1517 305.559C93.9928 306.831 93.855 308.113 93.696 309.385C93.1768 313.55 92.6363 317.736 92.223 321.869C92.0852 323.299 92.0004 324.719 91.9051 326.108C91.2798 324.772 90.1035 322.356 89.9763 322.165C87.984 318.986 82.2931 314.143 78.319 315.192C77.6556 315.386 77.0403 315.716 76.513 316.163C75.9858 316.61 75.5584 317.162 75.2585 317.785C74.9587 318.408 74.7932 319.086 74.7728 319.777C74.7523 320.468 74.8773 321.155 75.1398 321.795C76.1995 324.55 79.3788 326.298 81.9858 327.093C84.5928 327.888 90.3048 327.252 91.8945 327.04C91.7567 329.404 91.6719 331.756 91.7037 334.066C91.7037 335.073 91.7037 336.091 91.7991 337.044L91.9898 339.916C92.2018 341.866 92.3819 343.678 92.6151 345.501C92.7317 346.413 92.8588 347.271 92.986 348.161C92.5515 346.72 91.8415 344.431 91.7567 344.229C90.2518 340.828 85.3982 335.137 81.2228 335.561C80.538 335.651 79.88 335.885 79.2914 336.246C78.7027 336.608 78.1967 337.089 77.8059 337.658C77.4152 338.228 77.1486 338.873 77.0234 339.553C76.8982 340.232 76.9172 340.93 77.0791 341.601C77.6726 344.484 80.5339 346.699 83.0455 347.886C85.8115 349.2 92.3396 349.337 93.145 349.348C93.4523 351.531 93.7702 353.64 94.1093 355.622C95.1691 361.864 96.2288 367.035 97.0978 370.639C97.9668 374.242 98.4967 376.298 98.4967 376.298C98.6267 376.644 98.8829 376.928 99.2138 377.092C99.5446 377.257 99.9256 377.29 100.28 377.186C100.635 377.081 100.936 376.846 101.124 376.528C101.313 376.21 101.373 375.832 101.294 375.471C101.294 375.471 100.648 373.68 99.7472 370.119Z" fill="black"/>
<path d="M91.6401 267.408C91.6401 267.408 98.5391 264.971 100.86 262.692C102.842 260.742 104.834 257.722 104.463 254.808C104.398 254.119 104.189 253.451 103.849 252.849C103.51 252.246 103.047 251.722 102.491 251.31C101.935 250.898 101.299 250.608 100.623 250.458C99.948 250.309 99.2487 250.303 98.5709 250.441C94.5226 251.385 91.7461 258.358 91.4388 262.099C91.407 262.406 91.5659 267.44 91.6401 267.408Z" fill="black"/>
<path d="M95.7732 371.613C93.0708 369.155 89.2557 365.573 84.8683 361.08C83.6072 359.787 82.2825 358.398 80.9472 356.957C81.4983 356.364 85.9386 351.584 86.9242 348.691C87.8144 346.063 88.2171 342.47 86.5639 340.033C86.1956 339.449 85.7084 338.948 85.1339 338.565C84.5594 338.182 83.9107 337.924 83.2298 337.808C82.5489 337.692 81.8513 337.72 81.1823 337.892C80.5133 338.064 79.888 338.374 79.347 338.804C76.1677 341.474 76.8354 348.956 78.2342 352.39C78.319 352.612 79.6755 355.103 80.3538 356.353C79.5377 355.484 78.7323 354.615 77.9057 353.682C76.7082 352.368 75.4895 350.927 74.292 349.549L72.4904 347.303C71.8651 346.55 71.3671 345.756 70.7842 344.982C69.9576 343.827 69.1628 342.587 68.368 341.347C69.788 340.213 73.8999 336.79 75.1398 334.406C76.3797 332.021 77.3653 328.45 76.0936 325.8C75.8183 325.166 75.4124 324.597 74.9024 324.131C74.3924 323.664 73.7897 323.31 73.1337 323.092C72.4777 322.874 71.7831 322.797 71.0952 322.865C70.4073 322.934 69.7416 323.147 69.1416 323.49C65.5808 325.61 65.1251 333.134 65.9623 336.748C65.9623 336.875 66.259 337.617 66.577 338.496C65.8351 337.267 65.0933 336.048 64.3833 334.776C62.3804 331.173 60.4516 327.454 58.5017 323.723C58.099 322.95 57.6857 322.176 57.2723 321.402C58.4699 320.449 62.9526 316.782 64.2561 314.281C65.5596 311.78 66.471 308.325 65.2099 305.676C64.9346 305.042 64.5287 304.473 64.0187 304.006C63.5087 303.539 62.906 303.185 62.25 302.967C61.594 302.749 60.8994 302.672 60.2115 302.741C59.5237 302.809 58.858 303.022 58.2579 303.365C54.6972 305.485 54.2415 313.009 55.0787 316.623C55.0787 316.761 55.4284 317.683 55.7887 318.636C54.7289 316.623 53.5844 314.641 52.4293 312.691C50.4486 309.353 48.2501 306.149 45.8482 303.1C46.2827 302.761 51.6239 298.575 53.0651 295.799C54.3474 293.34 55.2906 289.843 54.0189 287.194C53.7447 286.559 53.3395 285.989 52.83 285.521C52.3204 285.053 51.7179 284.698 51.0618 284.479C50.4057 284.26 49.7107 284.182 49.0223 284.25C48.334 284.318 47.6677 284.53 47.0669 284.873C43.5062 286.992 43.0505 294.527 43.8877 298.141C43.9513 298.395 45.117 301.606 45.5621 302.74L45.4879 302.624C43.0482 299.692 40.3568 296.979 37.4444 294.516C34.8858 292.313 32.2038 290.258 29.4115 288.359C26.8045 286.579 24.3035 285.106 22.0886 283.824C20.8805 283.135 19.7571 282.531 18.7186 281.98H18.7927C18.8669 281.98 15.7407 277.984 15.5075 277.741C12.8899 275.102 6.28766 271.552 2.57853 273.438C1.97074 273.767 1.43903 274.22 1.01806 274.768C0.597089 275.315 0.296308 275.946 0.135326 276.618C-0.025656 277.29 -0.043225 277.988 0.0837624 278.667C0.21075 279.346 0.479442 279.991 0.872327 280.56C2.46196 283.039 5.92734 284.078 8.7039 284.29C11.4804 284.502 17.1077 282.573 18.4748 282.086C19.5346 282.679 20.7003 283.326 21.9508 284.078C24.1339 285.403 26.5925 286.929 29.1465 288.762C29.8354 289.25 30.5454 289.822 31.266 290.32C29.9095 289.684 28.0126 288.847 27.8218 288.783C24.2823 287.649 16.7792 287.533 14.3524 290.903C13.9674 291.476 13.7072 292.125 13.5883 292.805C13.4695 293.486 13.4948 294.184 13.6626 294.854C13.8304 295.524 14.137 296.151 14.5625 296.696C14.988 297.24 15.5229 297.689 16.1328 298.014C18.6868 299.466 22.2369 298.798 24.7909 297.706C27.3449 296.615 31.5946 292.174 32.4953 291.21C34.032 292.386 35.5792 293.637 37.1265 295.025C39.9516 297.515 42.5477 300.253 44.8838 303.206C45.0216 303.376 45.1382 303.567 45.276 303.747C44.6507 303.312 41.0369 301.204 40.8038 301.087C37.4126 299.572 29.9625 298.628 27.186 301.733C26.7393 302.26 26.4085 302.875 26.2149 303.539C26.0213 304.202 25.9692 304.898 26.0622 305.583C26.1551 306.267 26.3909 306.924 26.7543 307.512C27.1177 308.099 27.6006 308.604 28.1716 308.993C30.5454 310.72 34.1592 310.445 36.8085 309.639C39.8712 308.717 45.1594 304.044 45.3607 303.874C47.6122 306.878 49.6654 310.025 51.5073 313.295C52.885 315.712 54.1779 318.213 55.4496 320.714C54.6336 320.173 51.3059 318.213 51.0516 318.096C47.6604 316.581 40.2103 315.648 37.4232 318.742C36.9755 319.269 36.6439 319.885 36.4502 320.549C36.2565 321.212 36.205 321.91 36.299 322.595C36.393 323.28 36.6304 323.937 36.9958 324.524C37.3612 325.111 37.8462 325.615 38.4194 326.002C40.7932 327.74 44.3964 327.454 47.0563 326.659C50.0448 325.747 55.1316 321.296 55.5344 320.926C56.1172 322.07 56.7001 323.215 57.2723 324.359C59.1375 328.132 60.9815 331.905 62.9314 335.582C63.5991 336.854 64.3091 338.093 65.0509 339.323C63.7898 338.549 61.4796 337.203 61.2676 337.097C57.8764 335.582 50.4263 334.649 47.6498 337.744C47.2032 338.271 46.8723 338.886 46.6787 339.549C46.4851 340.212 46.4331 340.908 46.526 341.593C46.6189 342.277 46.8547 342.935 47.2181 343.522C47.5815 344.11 48.0644 344.614 48.6354 345.003C51.0092 346.741 54.6124 346.455 57.2723 345.66C59.9323 344.865 64.2985 341.199 65.5172 340.149C66.7041 342.195 67.9229 344.208 69.2264 346.116C69.8092 346.932 70.3497 347.801 70.9432 348.553L72.6917 350.832C73.9422 352.347 75.0974 353.767 76.2949 355.145L78.0647 357.169C76.9096 356.194 75.055 354.689 74.8854 354.573C71.7062 352.559 64.5422 350.503 61.3206 353.142C60.7978 353.595 60.3762 354.153 60.0834 354.78C59.7906 355.407 59.633 356.089 59.621 356.78C59.609 357.472 59.7428 358.159 60.0138 358.795C60.2847 359.432 60.6866 360.004 61.1934 360.475C63.3129 362.542 66.8949 362.818 69.6714 362.425C72.7023 361.991 78.2236 358.504 78.9019 358.07C80.3538 359.712 81.795 361.249 83.1409 362.765C87.4647 367.396 91.248 371.094 93.9292 373.638C96.6104 376.181 98.1682 377.601 98.1682 377.601C98.4677 377.821 98.8394 377.918 99.208 377.873C99.5767 377.829 99.9146 377.646 100.153 377.361C100.392 377.077 100.513 376.712 100.493 376.342C100.473 375.971 100.312 375.622 100.044 375.365C100.044 375.365 98.4861 374.083 95.7732 371.613Z" fill="black"/>
<path d="M32.3576 290.426C32.3576 290.426 36.7555 284.587 37.4444 281.397C38.0273 278.684 38.0167 275.038 36.0985 272.834C35.6636 272.297 35.1207 271.857 34.505 271.543C33.8893 271.228 33.2145 271.047 32.5242 271.01C31.834 270.973 31.1437 271.081 30.4979 271.328C29.8522 271.575 29.2654 271.954 28.7756 272.442C25.9143 275.462 27.4509 282.817 29.2313 286.07C29.4115 286.356 32.3046 290.479 32.3576 290.426Z" fill="black"/>
</g>
<g opacity="0.1">
<path d="M126.782 292.81C126.04 289.228 125.054 284.088 124.153 277.878C123.888 276.087 123.634 274.19 123.401 272.23C124.206 272.081 130.607 270.831 133.098 269.051C135.366 267.45 137.803 264.812 137.898 261.844C137.953 261.15 137.86 260.452 137.624 259.796C137.389 259.141 137.017 258.543 136.533 258.042C136.049 257.541 135.464 257.148 134.817 256.89C134.17 256.632 133.476 256.515 132.78 256.546C128.625 256.832 124.789 263.275 123.888 266.889C123.835 267.122 123.464 269.92 123.306 271.361C123.168 270.174 123.03 268.998 122.903 267.768C122.712 265.988 122.564 264.112 122.415 262.289C122.415 261.336 122.32 260.382 122.278 259.417C122.235 258.453 122.278 257.51 122.278 256.535C122.278 255.115 122.384 253.642 122.458 252.179C124.281 252.095 129.611 251.745 131.995 250.537C134.38 249.329 137.294 247.029 137.835 244.178C137.983 243.505 137.989 242.808 137.852 242.132C137.714 241.457 137.437 240.817 137.038 240.255C136.638 239.693 136.126 239.221 135.533 238.869C134.94 238.517 134.28 238.293 133.596 238.212C129.452 237.873 124.673 243.659 123.253 247.093C123.2 247.198 122.977 247.962 122.712 248.862C122.839 247.432 122.956 246.001 123.136 244.56C123.623 240.48 124.259 236.325 124.874 232.161C125.001 231.292 125.118 230.433 125.245 229.564C126.771 229.49 132.557 229.172 135.069 227.911C137.58 226.65 140.368 224.393 140.908 221.553C141.058 220.879 141.065 220.182 140.928 219.505C140.792 218.829 140.515 218.189 140.115 217.627C139.716 217.064 139.202 216.592 138.609 216.24C138.015 215.889 137.354 215.666 136.669 215.586C132.515 215.247 127.746 221.033 126.315 224.467C126.315 224.583 125.997 225.527 125.701 226.502C126.008 224.244 126.273 221.976 126.474 219.73C126.847 215.856 126.957 211.961 126.803 208.072C127.343 208.072 134.126 207.808 136.923 206.409C139.414 205.169 142.222 202.901 142.763 200.05C142.913 199.377 142.92 198.68 142.783 198.005C142.646 197.329 142.369 196.69 141.969 196.128C141.57 195.567 141.056 195.095 140.463 194.745C139.869 194.395 139.208 194.173 138.524 194.094C134.369 193.745 129.6 199.541 128.17 202.964C128.064 203.208 127.11 206.493 126.824 207.67C126.819 207.624 126.819 207.578 126.824 207.532C126.579 203.726 125.997 199.949 125.086 196.246C124.286 192.934 123.295 189.672 122.119 186.475C121.059 183.507 119.904 180.847 118.865 178.505C118.293 177.234 117.742 176.089 117.223 175.029H117.307C117.382 175.029 117.18 169.996 117.138 169.731C116.565 166.064 113.312 159.303 109.2 158.646C108.515 158.555 107.818 158.609 107.155 158.806C106.492 159.002 105.878 159.337 105.353 159.787C104.827 160.237 104.403 160.792 104.108 161.418C103.812 162.043 103.651 162.723 103.637 163.414C103.467 166.35 105.661 169.222 107.77 171.024C109.878 172.825 115.58 174.584 116.979 174.987C117.498 176.11 118.039 177.308 118.621 178.643C119.607 181.006 120.741 183.677 121.684 186.665C121.949 187.46 122.203 188.329 122.468 189.156C121.737 187.842 120.709 186.051 120.582 185.892C118.388 182.893 112.379 178.389 108.437 179.703C107.787 179.938 107.193 180.307 106.695 180.786C106.197 181.266 105.806 181.845 105.547 182.486C105.288 183.127 105.167 183.816 105.192 184.507C105.217 185.197 105.388 185.875 105.692 186.496C106.89 189.177 110.165 190.735 112.878 191.339C115.591 191.943 121.631 190.873 122.924 190.618C123.475 192.473 123.984 194.391 124.429 196.426C125.23 200.082 125.705 203.802 125.849 207.543C125.849 207.765 125.849 207.988 125.849 208.21C125.595 207.49 123.941 203.685 123.804 203.431C121.949 200.251 116.47 195.069 112.401 195.938C111.728 196.101 111.096 196.404 110.548 196.827C110 197.25 109.547 197.784 109.219 198.394C108.891 199.004 108.695 199.676 108.645 200.367C108.594 201.058 108.689 201.751 108.925 202.403C109.825 205.19 112.92 207.087 115.538 207.998C118.558 209.058 125.584 208.38 125.838 208.359C125.896 212.111 125.708 215.864 125.277 219.592C124.969 222.358 124.545 225.145 124.09 227.932C123.74 227.01 122.214 223.471 122.066 223.227C120.222 220.048 114.743 214.876 110.673 215.745C110.001 215.908 109.371 216.211 108.824 216.633C108.277 217.056 107.825 217.589 107.497 218.197C107.169 218.806 106.973 219.477 106.921 220.166C106.87 220.856 106.964 221.548 107.197 222.199C108.098 224.997 111.182 226.883 113.81 227.805C116.756 228.865 123.486 228.218 124.058 228.165C123.846 229.426 123.645 230.698 123.433 231.97C122.723 236.103 122.002 240.257 121.419 244.369C121.207 245.8 121.059 247.209 120.91 248.608C120.349 247.241 119.278 244.782 119.162 244.581C117.307 241.402 111.828 236.219 107.759 237.099C107.087 237.262 106.457 237.565 105.91 237.987C105.362 238.41 104.91 238.943 104.582 239.551C104.255 240.16 104.058 240.831 104.007 241.52C103.955 242.21 104.049 242.902 104.283 243.553C105.184 246.351 108.268 248.237 110.896 249.159C113.524 250.081 119.194 249.678 120.794 249.551C120.55 251.904 120.37 254.246 120.296 256.556C120.296 257.552 120.2 258.58 120.296 259.534C120.391 260.488 120.296 261.463 120.359 262.406C120.487 264.366 120.582 266.189 120.741 268.012C120.815 268.934 120.9 269.803 120.985 270.693C120.624 269.231 120.01 266.91 119.925 266.709C118.579 263.243 113.948 257.34 109.783 257.584C109.095 257.646 108.427 257.851 107.822 258.187C107.218 258.523 106.691 258.982 106.276 259.534C105.86 260.087 105.565 260.72 105.41 261.394C105.255 262.067 105.243 262.766 105.375 263.445C105.841 266.338 108.554 268.68 111.055 269.983C113.768 271.414 120.285 271.838 121.08 271.891C121.292 274.074 121.525 276.204 121.769 278.186C122.553 284.481 123.433 289.684 124.1 293.33C124.768 296.975 125.245 299.042 125.245 299.042C125.277 299.241 125.35 299.432 125.46 299.602C125.569 299.773 125.713 299.918 125.882 300.03C126.05 300.141 126.24 300.217 126.44 300.251C126.639 300.286 126.843 300.279 127.04 300.23C127.236 300.182 127.421 300.093 127.581 299.969C127.741 299.846 127.874 299.691 127.971 299.513C128.069 299.336 128.128 299.14 128.146 298.938C128.163 298.737 128.139 298.534 128.074 298.342C128.074 298.342 127.523 296.403 126.782 292.81Z" fill="black"/>
<path d="M123.221 189.845C123.221 189.845 130.215 187.725 132.642 185.532C134.761 183.688 136.881 180.752 136.574 177.817C136.54 177.127 136.362 176.451 136.051 175.835C135.739 175.218 135.301 174.674 134.765 174.238C134.229 173.802 133.607 173.484 132.94 173.305C132.273 173.125 131.576 173.088 130.893 173.196C126.803 173.959 123.719 180.805 123.253 184.493C123.21 184.811 123.147 189.866 123.221 189.845Z" fill="black"/>
</g>
<path d="M350.909 319.251C351.046 352.453 377.466 379.265 377.466 379.265C377.466 379.265 403.663 352.231 403.515 319.029C403.366 285.827 377.01 259.015 377.01 259.015C377.01 259.015 350.76 286.049 350.909 319.251Z" fill="#D4E8D1"/>
<path d="M377.466 379.265L376.957 259.015" stroke="white" stroke-width="0.910297" stroke-miterlimit="10"/>
<path d="M377.137 301.755L362.354 288.963" stroke="white" stroke-width="0.910297" stroke-miterlimit="10"/>
<path d="M377.455 321.625L395.577 295.131" stroke="white" stroke-width="0.910297" stroke-miterlimit="10"/>
<path d="M377.275 333.081L355.444 313.772" stroke="white" stroke-width="0.910297" stroke-miterlimit="10"/>
<path d="M377.572 348.511L399 329.245" stroke="white" stroke-width="0.910297" stroke-miterlimit="10"/>
<path d="M377.625 361.832L360.743 348.585" stroke="white" stroke-width="0.910297" stroke-miterlimit="10"/>
<path d="M332.903 370.501C345.737 384.892 367.472 386.397 367.472 386.397C367.472 386.397 368.437 364.598 355.603 350.249C342.77 335.9 320.992 334.437 320.992 334.437C320.992 334.437 320.07 356.194 332.903 370.501Z" fill="#D4E8D1"/>
<path d="M367.515 386.355L321.034 334.395" stroke="white" stroke-width="0.910297" stroke-miterlimit="10"/>
<path d="M337.556 352.856L326.216 352.994" stroke="white" stroke-width="0.910297" stroke-miterlimit="10"/>
<path d="M345.334 361.355L343.003 342.894" stroke="white" stroke-width="0.910297" stroke-miterlimit="10"/>
<path d="M349.658 366.399L332.766 366.421" stroke="white" stroke-width="0.910297" stroke-miterlimit="10"/>
<path d="M355.73 372.97L357.617 356.374" stroke="white" stroke-width="0.910297" stroke-miterlimit="10"/>
<path d="M360.881 378.735L348.46 379.477" stroke="white" stroke-width="0.910297" stroke-miterlimit="10"/>
<path d="M399.837 349.507C386.484 363.379 386.654 385.199 386.654 385.199C386.654 385.199 408.464 384.532 421.817 370.66C435.169 356.788 435 334.967 435 334.967C435 334.967 413.19 335.635 399.837 349.507Z" fill="#D4E8D1"/>
<path d="M386.654 385.199L435 334.967" stroke="white" stroke-width="0.910297" stroke-miterlimit="10"/>
<path d="M417.821 352.824L416.836 341.527" stroke="white" stroke-width="0.910297" stroke-miterlimit="10"/>
<path d="M409.926 361.217L428.164 357.519" stroke="white" stroke-width="0.910297" stroke-miterlimit="10"/>
<path d="M405.221 365.912L403.939 349.062" stroke="white" stroke-width="0.910297" stroke-miterlimit="10"/>
<path d="M399.117 372.451L415.808 373.086" stroke="white" stroke-width="0.910297" stroke-miterlimit="10"/>
<path d="M393.754 378.014L392.08 365.679" stroke="white" stroke-width="0.910297" stroke-miterlimit="10"/>
<g opacity="0.1">
<path d="M350.909 319.251C351.046 352.453 377.466 379.265 377.466 379.265C377.466 379.265 403.663 352.231 403.515 319.029C403.366 285.827 377.01 259.015 377.01 259.015C377.01 259.015 350.76 286.049 350.909 319.251Z" fill="black"/>
<path d="M332.903 370.501C345.737 384.892 367.472 386.397 367.472 386.397C367.472 386.397 368.437 364.598 355.603 350.249C342.77 335.9 320.992 334.437 320.992 334.437C320.992 334.437 320.07 356.194 332.903 370.501Z" fill="black"/>
<path d="M399.837 349.507C386.484 363.379 386.654 385.199 386.654 385.199C386.654 385.199 408.464 384.532 421.817 370.66C435.169 356.787 435 334.967 435 334.967C435 334.967 413.19 335.635 399.837 349.507Z" fill="black"/>
</g>
<path d="M358.433 48.1028H97.0131V384.585H358.433V48.1028Z" fill="white" stroke="#263238" stroke-width="0.987488" stroke-linecap="round" stroke-linejoin="round"/>
<g style="mix-blend-mode:multiply">
<path d="M138.714 48.1028H97.0131V384.585H138.714V48.1028Z" fill="#D4E8D1"/>
</g>
<path d="M300.348 97.8158H220.177V107.248H300.348V97.8158Z" fill="#D4E8D1" stroke="#263238" stroke-width="0.987488" stroke-linecap="round" stroke-linejoin="round"/>
<path d="M349.669 178.177H129.908V187.609H349.669V178.177Z" fill="#D4E8D1"/>
<path d="M349.669 307.806H129.908V317.238H349.669V307.806Z" fill="#D4E8D1"/>
<path d="M270.706 114.062H220.177V123.494H270.706V114.062Z" fill="#D4E8D1" stroke="#263238" stroke-width="0.987488" stroke-linecap="round" stroke-linejoin="round"/>
<path d="M270.706 129.969H220.177V139.4H270.706V129.969Z" fill="#D4E8D1" stroke="#263238" stroke-width="0.987488" stroke-linecap="round" stroke-linejoin="round"/>
<path d="M213.225 197.994H208.022V203.198H213.225V197.994Z" fill="#D4E8D1" stroke="#263238" stroke-width="0.987488" stroke-linecap="round" stroke-linejoin="round"/>
<path d="M213.225 264.918H208.022V270.121H213.225V264.918Z" fill="#D4E8D1" stroke="#263238" stroke-width="0.987488" stroke-linecap="round" stroke-linejoin="round"/>
<path d="M286.656 197.994H281.452V203.198H286.656V197.994Z" fill="#D4E8D1" stroke="#263238" stroke-width="0.987488" stroke-linecap="round" stroke-linejoin="round"/>
<path d="M286.656 264.918H281.452V270.121H286.656V264.918Z" fill="#D4E8D1" stroke="#263238" stroke-width="0.987488" stroke-linecap="round" stroke-linejoin="round"/>
<path d="M358.433 48.1028H97.0131V65.2178H358.433V48.1028Z" fill="#263238" stroke="#263238" stroke-width="0.987488" stroke-linecap="round" stroke-linejoin="round"/>
<path d="M267.676 201.608H221.661C221.268 201.608 220.89 201.452 220.612 201.173C220.334 200.895 220.177 200.518 220.177 200.124C220.177 199.731 220.334 199.353 220.612 199.075C220.89 198.797 221.268 198.641 221.661 198.641H267.676C268.069 198.641 268.446 198.797 268.725 199.075C269.003 199.353 269.159 199.731 269.159 200.124C269.159 200.518 269.003 200.895 268.725 201.173C268.446 201.452 268.069 201.608 267.676 201.608Z" fill="#263238"/>
<path d="M267.676 209.037H221.661C221.267 209.034 220.889 208.875 220.611 208.595C220.333 208.316 220.177 207.937 220.177 207.543C220.177 207.149 220.334 206.772 220.612 206.494C220.89 206.215 221.268 206.059 221.661 206.059H267.676C268.069 206.059 268.446 206.215 268.725 206.494C269.003 206.772 269.159 207.149 269.159 207.543C269.159 207.937 269.003 208.316 268.725 208.595C268.447 208.875 268.07 209.034 267.676 209.037Z" fill="#263238"/>
<path d="M267.676 216.455H221.661C221.268 216.455 220.89 216.299 220.612 216.02C220.334 215.742 220.177 215.365 220.177 214.971C220.177 214.578 220.334 214.201 220.612 213.922C220.89 213.644 221.268 213.488 221.661 213.488H267.676C268.069 213.488 268.446 213.644 268.725 213.922C269.003 214.201 269.159 214.578 269.159 214.971C269.159 215.365 269.003 215.742 268.725 216.02C268.446 216.299 268.069 216.455 267.676 216.455Z" fill="#263238"/>
<path d="M267.676 223.873H221.661C221.268 223.873 220.89 223.717 220.612 223.439C220.334 223.161 220.177 222.783 220.177 222.39C220.177 221.996 220.334 221.619 220.612 221.341C220.89 221.062 221.268 220.906 221.661 220.906H267.676C268.069 220.906 268.446 221.062 268.725 221.341C269.003 221.619 269.159 221.996 269.159 222.39C269.159 222.783 269.003 223.161 268.725 223.439C268.446 223.717 268.069 223.873 267.676 223.873Z" fill="#263238"/>
<path d="M267.676 231.292H221.661C221.268 231.292 220.89 231.135 220.612 230.857C220.334 230.579 220.177 230.201 220.177 229.808C220.177 229.414 220.334 229.037 220.612 228.759C220.89 228.481 221.268 228.324 221.661 228.324H267.676C268.069 228.324 268.446 228.481 268.725 228.759C269.003 229.037 269.159 229.414 269.159 229.808C269.159 230.201 269.003 230.579 268.725 230.857C268.446 231.135 268.069 231.292 267.676 231.292Z" fill="#263238"/>
<path d="M337.28 201.608H291.266C290.872 201.608 290.495 201.452 290.217 201.173C289.938 200.895 289.782 200.518 289.782 200.124C289.782 199.731 289.938 199.353 290.217 199.075C290.495 198.797 290.872 198.641 291.266 198.641H337.28C337.674 198.641 338.051 198.797 338.329 199.075C338.607 199.353 338.764 199.731 338.764 200.124C338.764 200.518 338.607 200.895 338.329 201.173C338.051 201.452 337.674 201.608 337.28 201.608Z" fill="#263238"/>
<path d="M337.28 209.037H291.266C290.871 209.034 290.494 208.875 290.216 208.595C289.938 208.316 289.782 207.937 289.782 207.543C289.782 207.149 289.938 206.772 290.217 206.494C290.495 206.215 290.872 206.059 291.266 206.059H337.28C337.674 206.059 338.051 206.215 338.329 206.494C338.607 206.772 338.764 207.149 338.764 207.543C338.764 207.937 338.608 208.316 338.33 208.595C338.052 208.875 337.675 209.034 337.28 209.037Z" fill="#263238"/>
<path d="M337.28 216.455H291.266C290.872 216.455 290.495 216.299 290.217 216.02C289.938 215.742 289.782 215.365 289.782 214.971C289.782 214.578 289.938 214.201 290.217 213.922C290.495 213.644 290.872 213.488 291.266 213.488H337.28C337.674 213.488 338.051 213.644 338.329 213.922C338.607 214.201 338.764 214.578 338.764 214.971C338.764 215.365 338.607 215.742 338.329 216.02C338.051 216.299 337.674 216.455 337.28 216.455Z" fill="#263238"/>
<path d="M337.28 223.873H291.266C290.872 223.873 290.495 223.717 290.217 223.439C289.938 223.161 289.782 222.783 289.782 222.39C289.782 221.996 289.938 221.619 290.217 221.341C290.495 221.062 290.872 220.906 291.266 220.906H337.28C337.674 220.906 338.051 221.062 338.329 221.341C338.607 221.619 338.764 221.996 338.764 222.39C338.764 222.783 338.607 223.161 338.329 223.439C338.051 223.717 337.674 223.873 337.28 223.873Z" fill="#263238"/>
<path d="M337.28 231.292H291.266C290.872 231.292 290.495 231.135 290.217 230.857C289.938 230.579 289.782 230.201 289.782 229.808C289.782 229.414 289.938 229.037 290.217 228.759C290.495 228.481 290.872 228.324 291.266 228.324H337.28C337.674 228.324 338.051 228.481 338.329 228.759C338.607 229.037 338.764 229.414 338.764 229.808C338.764 230.201 338.607 230.579 338.329 230.857C338.051 231.135 337.674 231.292 337.28 231.292Z" fill="#263238"/>
<path d="M267.676 267.419H221.661C221.267 267.416 220.889 267.257 220.611 266.977C220.333 266.697 220.177 266.319 220.177 265.924C220.177 265.531 220.334 265.153 220.612 264.875C220.89 264.597 221.268 264.441 221.661 264.441H267.676C268.069 264.441 268.446 264.597 268.725 264.875C269.003 265.153 269.159 265.531 269.159 265.924C269.159 266.319 269.003 266.697 268.725 266.977C268.447 267.257 268.07 267.416 267.676 267.419Z" fill="#263238"/>
<path d="M267.676 274.837H221.661C221.268 274.837 220.89 274.681 220.612 274.402C220.334 274.124 220.177 273.747 220.177 273.353C220.177 272.96 220.334 272.582 220.612 272.304C220.89 272.026 221.268 271.87 221.661 271.87H267.676C268.069 271.87 268.446 272.026 268.725 272.304C269.003 272.582 269.159 272.96 269.159 273.353C269.159 273.747 269.003 274.124 268.725 274.402C268.446 274.681 268.069 274.837 267.676 274.837Z" fill="#263238"/>
<path d="M267.676 282.255H221.661C221.268 282.255 220.89 282.099 220.612 281.821C220.334 281.542 220.177 281.165 220.177 280.771C220.177 280.378 220.334 280.001 220.612 279.722C220.89 279.444 221.268 279.288 221.661 279.288H267.676C268.069 279.288 268.446 279.444 268.725 279.722C269.003 280.001 269.159 280.378 269.159 280.771C269.159 281.165 269.003 281.542 268.725 281.821C268.446 282.099 268.069 282.255 267.676 282.255Z" fill="#263238"/>
<path d="M267.676 289.673H221.661C221.268 289.673 220.89 289.517 220.612 289.239C220.334 288.961 220.177 288.583 220.177 288.19C220.177 287.796 220.334 287.419 220.612 287.141C220.89 286.862 221.268 286.706 221.661 286.706H267.676C268.069 286.706 268.446 286.862 268.725 287.141C269.003 287.419 269.159 287.796 269.159 288.19C269.159 288.583 269.003 288.961 268.725 289.239C268.446 289.517 268.069 289.673 267.676 289.673Z" fill="#263238"/>
<path d="M267.676 297.102H221.661C221.268 297.102 220.89 296.946 220.612 296.668C220.334 296.389 220.177 296.012 220.177 295.619C220.177 295.225 220.334 294.848 220.612 294.569C220.89 294.291 221.268 294.135 221.661 294.135H267.676C268.069 294.135 268.446 294.291 268.725 294.569C269.003 294.848 269.159 295.225 269.159 295.619C269.159 296.012 269.003 296.389 268.725 296.668C268.446 296.946 268.069 297.102 267.676 297.102Z" fill="#263238"/>
<path d="M337.28 267.419H291.266C290.871 267.416 290.494 267.257 290.216 266.977C289.938 266.697 289.782 266.319 289.782 265.924C289.782 265.531 289.938 265.153 290.217 264.875C290.495 264.597 290.872 264.441 291.266 264.441H337.28C337.674 264.441 338.051 264.597 338.329 264.875C338.607 265.153 338.764 265.531 338.764 265.924C338.764 266.319 338.608 266.697 338.33 266.977C338.052 267.257 337.675 267.416 337.28 267.419Z" fill="#263238"/>
<path d="M337.28 274.837H291.266C290.872 274.837 290.495 274.681 290.217 274.402C289.938 274.124 289.782 273.747 289.782 273.353C289.782 272.96 289.938 272.582 290.217 272.304C290.495 272.026 290.872 271.87 291.266 271.87H337.28C337.674 271.87 338.051 272.026 338.329 272.304C338.607 272.582 338.764 272.96 338.764 273.353C338.764 273.747 338.607 274.124 338.329 274.402C338.051 274.681 337.674 274.837 337.28 274.837Z" fill="#263238"/>
<path d="M337.28 282.255H291.266C290.872 282.255 290.495 282.099 290.217 281.821C289.938 281.542 289.782 281.165 289.782 280.771C289.782 280.378 289.938 280.001 290.217 279.722C290.495 279.444 290.872 279.288 291.266 279.288H337.28C337.674 279.288 338.051 279.444 338.329 279.722C338.607 280.001 338.764 280.378 338.764 280.771C338.764 281.165 338.607 281.542 338.329 281.821C338.051 282.099 337.674 282.255 337.28 282.255Z" fill="#263238"/>
<path d="M337.28 289.673H291.266C290.872 289.673 290.495 289.517 290.217 289.239C289.938 288.961 289.782 288.583 289.782 288.19C289.782 287.796 289.938 287.419 290.217 287.141C290.495 286.862 290.872 286.706 291.266 286.706H337.28C337.674 286.706 338.051 286.862 338.329 287.141C338.607 287.419 338.764 287.796 338.764 288.19C338.764 288.583 338.607 288.961 338.329 289.239C338.051 289.517 337.674 289.673 337.28 289.673Z" fill="#263238"/>
<path d="M337.28 297.102H291.266C290.872 297.102 290.495 296.946 290.217 296.668C289.938 296.389 289.782 296.012 289.782 295.619C289.782 295.225 289.938 294.848 290.217 294.569C290.495 294.291 290.872 294.135 291.266 294.135H337.28C337.674 294.135 338.051 294.291 338.329 294.569C338.607 294.848 338.764 295.225 338.764 295.619C338.764 296.012 338.607 296.389 338.329 296.668C338.051 296.946 337.674 297.102 337.28 297.102Z" fill="#263238"/>
<path d="M337.28 330.972H291.266C290.872 330.972 290.495 330.816 290.217 330.537C289.938 330.259 289.782 329.882 289.782 329.488C289.782 329.095 289.938 328.717 290.217 328.439C290.495 328.161 290.872 328.005 291.266 328.005H337.28C337.674 328.005 338.051 328.161 338.329 328.439C338.607 328.717 338.764 329.095 338.764 329.488C338.764 329.882 338.607 330.259 338.329 330.537C338.051 330.816 337.674 330.972 337.28 330.972Z" fill="#263238"/>
<path d="M337.28 338.39H291.266C290.872 338.39 290.495 338.234 290.217 337.956C289.938 337.677 289.782 337.3 289.782 336.906C289.782 336.513 289.938 336.136 290.217 335.857C290.495 335.579 290.872 335.423 291.266 335.423H337.28C337.674 335.423 338.051 335.579 338.329 335.857C338.607 336.136 338.764 336.513 338.764 336.906C338.764 337.3 338.607 337.677 338.329 337.956C338.051 338.234 337.674 338.39 337.28 338.39Z" fill="#263238"/>
<path d="M337.28 345.819H291.266C290.872 345.819 290.495 345.663 290.217 345.385C289.938 345.106 289.782 344.729 289.782 344.335C289.782 343.942 289.938 343.565 290.217 343.286C290.495 343.008 290.872 342.852 291.266 342.852H337.28C337.674 342.852 338.051 343.008 338.329 343.286C338.607 343.565 338.764 343.942 338.764 344.335C338.764 344.729 338.607 345.106 338.329 345.385C338.051 345.663 337.674 345.819 337.28 345.819Z" fill="#263238"/>
<path d="M337.28 350.27H291.266C290.446 350.27 289.782 350.934 289.782 351.754C289.782 352.573 290.446 353.237 291.266 353.237H337.28C338.1 353.237 338.764 352.573 338.764 351.754C338.764 350.934 338.1 350.27 337.28 350.27Z" fill="#263238"/>
<path d="M337.28 360.656H291.266C290.872 360.656 290.495 360.499 290.217 360.221C289.938 359.943 289.782 359.565 289.782 359.172C289.782 358.779 289.938 358.401 290.217 358.123C290.495 357.845 290.872 357.688 291.266 357.688H337.28C337.674 357.688 338.051 357.845 338.329 358.123C338.607 358.401 338.764 358.779 338.764 359.172C338.764 359.565 338.607 359.943 338.329 360.221C338.051 360.499 337.674 360.656 337.28 360.656Z" fill="#263238"/>
<path d="M332.829 244.655C331.426 244.656 330.069 245.153 328.998 246.059C327.928 246.965 327.212 248.221 326.979 249.604H319.879C319.619 248.249 318.895 247.026 317.831 246.146C316.768 245.267 315.431 244.786 314.05 244.786C312.67 244.786 311.333 245.267 310.269 246.146C309.205 247.026 308.481 248.249 308.222 249.604H301.121C300.862 248.249 300.138 247.026 299.074 246.146C298.01 245.267 296.673 244.786 295.293 244.786C293.913 244.786 292.575 245.267 291.512 246.146C290.448 247.026 289.724 248.249 289.464 249.604H282.268C282.02 248.239 281.301 247.004 280.236 246.115C279.171 245.226 277.827 244.739 276.44 244.739C275.052 244.739 273.709 245.226 272.644 246.115C271.578 247.004 270.859 248.239 270.611 249.604H263.5C263.252 248.239 262.533 247.004 261.468 246.115C260.403 245.226 259.059 244.739 257.672 244.739C256.284 244.739 254.941 245.226 253.875 246.115C252.81 247.004 252.091 248.239 251.843 249.604H244.732C244.484 248.239 243.765 247.004 242.699 246.115C241.634 245.226 240.291 244.739 238.903 244.739C237.516 244.739 236.172 245.226 235.107 246.115C234.042 247.004 233.323 248.239 233.075 249.604H225.964C225.715 248.137 224.925 246.817 223.749 245.905C222.573 244.993 221.098 244.557 219.615 244.681C218.133 244.806 216.751 245.483 215.744 246.578C214.737 247.674 214.178 249.107 214.178 250.595C214.178 252.083 214.737 253.516 215.744 254.612C216.751 255.707 218.133 256.384 219.615 256.509C221.098 256.633 222.573 256.197 223.749 255.285C224.925 254.373 225.715 253.053 225.964 251.586H233.075C233.323 252.951 234.042 254.186 235.107 255.075C236.172 255.964 237.516 256.451 238.903 256.451C240.291 256.451 241.634 255.964 242.699 255.075C243.765 254.186 244.484 252.951 244.732 251.586H251.843C252.091 252.951 252.81 254.186 253.875 255.075C254.941 255.964 256.284 256.451 257.672 256.451C259.059 256.451 260.403 255.964 261.468 255.075C262.533 254.186 263.252 252.951 263.5 251.586H270.611C270.859 252.951 271.578 254.186 272.644 255.075C273.709 255.964 275.052 256.451 276.44 256.451C277.827 256.451 279.171 255.964 280.236 255.075C281.301 254.186 282.02 252.951 282.268 251.586H289.379C289.639 252.941 290.363 254.164 291.427 255.043C292.491 255.923 293.828 256.404 295.208 256.404C296.588 256.404 297.925 255.923 298.989 255.043C300.053 254.164 300.777 252.941 301.037 251.586H308.137C308.397 252.941 309.121 254.164 310.184 255.043C311.248 255.923 312.585 256.404 313.966 256.404C315.346 256.404 316.683 255.923 317.747 255.043C318.81 254.164 319.535 252.941 319.794 251.586H326.895C327.084 252.701 327.589 253.739 328.349 254.577C329.109 255.414 330.092 256.018 331.184 256.315C332.275 256.613 333.429 256.592 334.509 256.256C335.589 255.92 336.55 255.282 337.28 254.418C338.01 253.553 338.477 252.498 338.627 251.377C338.777 250.256 338.604 249.115 338.127 248.089C337.65 247.063 336.891 246.195 335.937 245.587C334.983 244.978 333.876 244.655 332.744 244.655H332.829Z" fill="#263238"/>
<path d="M194.404 328.556C192.425 328.554 190.49 329.139 188.843 330.236C187.197 331.334 185.913 332.896 185.154 334.724C184.395 336.552 184.196 338.564 184.581 340.505C184.965 342.446 185.917 344.23 187.316 345.63C188.715 347.03 190.497 347.984 192.438 348.371C194.379 348.758 196.391 348.56 198.22 347.803C200.048 347.046 201.611 345.764 202.711 344.119C203.811 342.473 204.398 340.539 204.398 338.56C204.399 337.246 204.142 335.946 203.64 334.732C203.139 333.518 202.403 332.416 201.475 331.486C200.546 330.557 199.444 329.82 198.231 329.317C197.018 328.814 195.718 328.556 194.404 328.556ZM194.404 343.541C193.416 343.543 192.45 343.251 191.627 342.704C190.805 342.156 190.163 341.377 189.784 340.464C189.405 339.552 189.305 338.547 189.498 337.578C189.69 336.609 190.166 335.718 190.864 335.02C191.563 334.321 192.453 333.845 193.423 333.653C194.392 333.461 195.396 333.561 196.309 333.94C197.221 334.319 198.001 334.96 198.548 335.783C199.096 336.605 199.387 337.572 199.385 338.56C199.382 339.88 198.857 341.145 197.923 342.079C196.99 343.012 195.724 343.538 194.404 343.541Z" fill="#D4E8D1" stroke="#263238" stroke-width="0.987488" stroke-linecap="round" stroke-linejoin="round"/>
<path d="M197.382 342.534L202.151 344.855C203.341 343.391 204.093 341.621 204.319 339.749C204.546 337.876 204.238 335.978 203.431 334.274C202.624 332.569 201.351 331.127 199.759 330.115C198.168 329.104 196.322 328.563 194.436 328.556V333.568C195.477 333.579 196.488 333.916 197.328 334.531C198.167 335.147 198.793 336.01 199.117 336.999C199.441 337.988 199.447 339.054 199.134 340.047C198.821 341.04 198.204 341.909 197.372 342.534H197.382Z" fill="#263238" stroke="#263238" stroke-width="0.987488" stroke-linecap="round" stroke-linejoin="round"/>
<path d="M199.216 360.963H189.678C189.365 360.964 189.055 360.904 188.766 360.785C188.477 360.667 188.214 360.492 187.992 360.271C187.771 360.051 187.595 359.789 187.475 359.5C187.355 359.211 187.293 358.902 187.293 358.589C187.293 357.957 187.545 357.35 187.992 356.903C188.439 356.456 189.045 356.205 189.678 356.205H199.216C199.848 356.205 200.454 356.456 200.902 356.903C201.349 357.35 201.6 357.957 201.6 358.589C201.6 358.902 201.538 359.211 201.418 359.5C201.298 359.789 201.123 360.051 200.901 360.271C200.679 360.492 200.416 360.667 200.127 360.785C199.838 360.904 199.528 360.964 199.216 360.963Z" fill="#D4E8D1" stroke="#263238" stroke-width="0.987488" stroke-linecap="round" stroke-linejoin="round"/>
<path d="M224.215 328.556C222.237 328.556 220.302 329.142 218.657 330.242C217.012 331.341 215.73 332.903 214.973 334.731C214.215 336.559 214.017 338.571 214.403 340.511C214.789 342.452 215.742 344.235 217.141 345.634C218.54 347.033 220.323 347.986 222.263 348.372C224.204 348.758 226.216 348.559 228.044 347.802C229.872 347.045 231.434 345.763 232.533 344.118C233.632 342.473 234.219 340.538 234.219 338.56C234.221 337.246 233.963 335.944 233.461 334.73C232.958 333.515 232.221 332.412 231.292 331.483C230.363 330.553 229.26 329.817 228.045 329.314C226.831 328.812 225.529 328.554 224.215 328.556ZM224.215 343.541C223.227 343.541 222.262 343.248 221.441 342.699C220.62 342.15 219.98 341.369 219.603 340.457C219.225 339.544 219.127 338.54 219.32 337.571C219.514 336.603 219.99 335.714 220.689 335.016C221.389 334.318 222.279 333.844 223.248 333.652C224.217 333.461 225.221 333.561 226.133 333.941C227.045 334.32 227.823 334.962 228.371 335.784C228.918 336.606 229.209 337.572 229.207 338.56C229.207 339.215 229.077 339.863 228.826 340.468C228.575 341.073 228.208 341.623 227.744 342.085C227.28 342.548 226.73 342.915 226.124 343.164C225.519 343.414 224.87 343.542 224.215 343.541Z" fill="#D4E8D1" stroke="#263238" stroke-width="0.987488" stroke-linecap="round" stroke-linejoin="round"/>
<path d="M234.166 337.511C233.903 335.063 232.749 332.798 230.924 331.146C229.099 329.495 226.73 328.573 224.268 328.556V333.568C225.583 333.582 226.839 334.114 227.763 335.049C228.688 335.983 229.207 337.245 229.207 338.56C229.196 338.751 229.175 338.943 229.143 339.132L234.166 337.511Z" fill="#263238" stroke="#263238" stroke-width="0.987488" stroke-linecap="round" stroke-linejoin="round"/>
<path d="M228.984 360.963H219.446C219.134 360.964 218.824 360.904 218.535 360.785C218.245 360.667 217.982 360.492 217.761 360.271C217.539 360.051 217.363 359.789 217.243 359.5C217.124 359.211 217.062 358.902 217.062 358.589C217.062 357.957 217.313 357.35 217.76 356.903C218.207 356.456 218.814 356.205 219.446 356.205H228.984C229.616 356.205 230.223 356.456 230.67 356.903C231.117 357.35 231.368 357.957 231.368 358.589C231.368 358.902 231.307 359.211 231.187 359.5C231.067 359.789 230.891 360.051 230.669 360.271C230.448 360.492 230.185 360.667 229.896 360.785C229.606 360.904 229.297 360.964 228.984 360.963Z" fill="#D4E8D1" stroke="#263238" stroke-width="0.987488" stroke-linecap="round" stroke-linejoin="round"/>
<path d="M254.206 328.556C252.227 328.556 250.293 329.142 248.648 330.242C247.003 331.341 245.721 332.903 244.964 334.731C244.206 336.559 244.008 338.571 244.394 340.511C244.78 342.452 245.733 344.235 247.132 345.634C248.531 347.033 250.314 347.986 252.254 348.372C254.195 348.758 256.207 348.559 258.035 347.802C259.863 347.045 261.425 345.763 262.524 344.118C263.623 342.473 264.21 340.538 264.21 338.56C264.212 337.246 263.954 335.944 263.452 334.73C262.949 333.515 262.212 332.412 261.283 331.483C260.354 330.553 259.251 329.817 258.036 329.314C256.822 328.812 255.52 328.554 254.206 328.556ZM254.206 343.541C253.218 343.541 252.253 343.248 251.432 342.699C250.611 342.15 249.971 341.369 249.594 340.457C249.216 339.544 249.118 338.54 249.311 337.571C249.505 336.603 249.981 335.714 250.68 335.016C251.38 334.318 252.27 333.844 253.239 333.652C254.208 333.461 255.212 333.561 256.124 333.941C257.035 334.32 257.814 334.962 258.361 335.784C258.909 336.606 259.2 337.572 259.198 338.56C259.198 339.215 259.068 339.863 258.817 340.468C258.566 341.073 258.199 341.623 257.735 342.085C257.271 342.548 256.721 342.915 256.115 343.164C255.51 343.414 254.861 343.542 254.206 343.541Z" fill="#D4E8D1" stroke="#263238" stroke-width="0.987488" stroke-linecap="round" stroke-linejoin="round"/>
<path d="M254.259 328.556V333.568C255.099 333.57 255.925 333.783 256.661 334.188C257.396 334.594 258.018 335.178 258.467 335.888C258.917 336.597 259.18 337.409 259.233 338.247C259.286 339.085 259.126 339.923 258.768 340.684C258.411 341.444 257.867 342.101 257.188 342.596C256.509 343.09 255.716 343.405 254.883 343.511C254.05 343.617 253.203 343.512 252.422 343.204C251.64 342.896 250.949 342.396 250.412 341.75L246.449 344.844C247.51 346.153 248.886 347.172 250.447 347.807C252.008 348.441 253.705 348.671 255.378 348.474C257.052 348.277 258.649 347.66 260.02 346.68C261.391 345.7 262.493 344.39 263.221 342.87C263.95 341.35 264.283 339.671 264.188 337.988C264.093 336.306 263.575 334.674 262.68 333.246C261.786 331.817 260.545 330.638 259.073 329.818C257.6 328.998 255.944 328.564 254.259 328.556Z" fill="#263238" stroke="#263238" stroke-width="0.987488" stroke-linecap="round" stroke-linejoin="round"/>
<path d="M258.975 360.963H249.437C249.125 360.964 248.815 360.904 248.526 360.785C248.236 360.667 247.973 360.492 247.752 360.271C247.53 360.051 247.354 359.789 247.234 359.5C247.115 359.211 247.053 358.902 247.053 358.589C247.051 358.276 247.112 357.965 247.231 357.675C247.351 357.385 247.526 357.122 247.748 356.9C247.97 356.678 248.233 356.503 248.523 356.383C248.813 356.264 249.124 356.203 249.437 356.205H258.975C259.607 356.205 260.214 356.456 260.661 356.903C261.108 357.35 261.359 357.957 261.359 358.589C261.359 358.902 261.298 359.211 261.178 359.5C261.058 359.789 260.882 360.051 260.66 360.271C260.439 360.492 260.176 360.667 259.887 360.785C259.597 360.904 259.288 360.964 258.975 360.963Z" fill="#D4E8D1" stroke="#263238" stroke-width="0.987488" stroke-linecap="round" stroke-linejoin="round"/>
<path d="M151.495 174.362C176.217 174.362 196.259 154.32 196.259 129.598C196.259 104.875 176.217 84.8339 151.495 84.8339C126.772 84.8339 106.731 104.875 106.731 129.598C106.731 154.32 126.772 174.362 151.495 174.362Z" fill="white"/>
<path d="M165.06 378.64C165.06 378.64 171.524 388.358 170.634 392.204C169.744 396.051 164.064 394.864 161.372 390.721C158.68 386.577 151.834 380.388 153.074 377.728C154.314 375.068 162.644 376.276 165.06 378.64Z" fill="white" stroke="#263238" stroke-width="1.02307" stroke-linecap="round" stroke-linejoin="round"/>
<path d="M137.284 378.099C137.284 378.099 129.473 389.693 130.724 392.862C131.974 396.03 136.023 395.087 139.117 392.226C142.211 389.364 148.39 381.331 148.39 381.331C148.39 381.331 143.197 374.931 137.284 378.099Z" fill="white" stroke="#263238" stroke-width="1.02307" stroke-linecap="round" stroke-linejoin="round"/>
<path d="M130.724 392.861C132.842 393.153 134.997 392.732 136.849 391.664C140.41 389.862 146.62 381.734 146.62 381.734" stroke="#263238" stroke-width="0.767303" stroke-linecap="round" stroke-linejoin="round"/>
<path d="M155.246 379.668C155.246 379.668 158.627 386.026 162.432 389.629C166.236 393.232 168.101 394.26 170.602 392.204" stroke="#263238" stroke-width="0.767303" stroke-linecap="round" stroke-linejoin="round"/>
<path d="M126.315 233.422C126.315 233.422 119.48 247.368 119.787 253.07C120.094 258.771 121.345 287.617 123.21 297.123C125.075 306.629 126.909 330.304 128.18 339.768C129.452 349.231 137.602 371.402 137.602 371.402C137.602 371.402 136.351 376.478 137.284 378.057C138.216 379.636 148.083 382.243 148.39 381.289C148.697 380.335 150.255 377.484 150.509 374.634C150.764 371.783 146.164 341.358 148.03 334.702C149.895 328.047 150.255 283.304 150.509 278.694C150.764 274.084 150.435 265.977 150.435 265.977C150.989 266.148 151.582 266.149 152.137 265.981C152.692 265.813 153.184 265.484 153.551 265.034C154.791 263.445 158.903 306.523 160.153 316.665C161.404 326.807 158.595 329.658 157.663 335.995C156.73 342.332 154.558 362.923 154.558 365.467C154.558 368.01 151.76 376.234 153 377.824C154.24 379.413 156.878 379.148 157.959 379.445C161.202 380.346 163.735 378.936 164.975 378.618C166.215 378.3 167.264 373.712 167.264 373.712C167.264 373.712 177.247 345.501 179.112 333.77C180.977 322.038 184.082 300.271 183.468 286.96C182.853 273.65 179.112 246.69 179.112 246.69L178.179 238.763L126.315 233.422Z" fill="#263238" stroke="#263238" stroke-width="1.02307" stroke-linecap="round" stroke-linejoin="round"/>
<path d="M121.949 249.551C121.949 249.551 121.345 257.372 126.464 262.48" stroke="white" stroke-width="0.506629" stroke-linecap="round" stroke-linejoin="round"/>
<path d="M122.246 260.679C122.246 260.679 125.255 265.797 128.869 266.391" stroke="white" stroke-width="0.506629" stroke-linecap="round" stroke-linejoin="round"/>
<path d="M146.302 346.264C146.302 346.264 142.063 356.374 141.491 361.896C140.919 367.417 146.302 365.266 147.51 368.943C148.718 372.62 140.293 372.323 141.798 373.235C143.303 374.146 147.807 374.771 147.807 374.771" stroke="white" stroke-width="0.511535" stroke-linecap="round" stroke-linejoin="round"/>
<path d="M154.462 371.402C155.363 371.094 165.59 369.282 164.382 363.74C163.173 358.197 157.165 357.911 158.023 351.478C158.881 345.045 168.239 330.93 168.239 326.945C168.239 322.96 161.626 308.113 161.022 298.914" stroke="white" stroke-width="0.511535" stroke-linecap="round" stroke-linejoin="round"/>
<path d="M169.161 248.958C169.161 248.958 162.241 258.877 161.34 260.382C160.439 261.887 169.458 253.769 169.458 253.769" stroke="white" stroke-width="0.506629" stroke-linecap="round" stroke-linejoin="round"/>
<path d="M151.06 245.45C151.06 245.45 151.813 252.699 151.813 254.193V262.448" stroke="white" stroke-width="0.506629" stroke-linecap="round" stroke-linejoin="round"/>
<path d="M151.813 257.955C151.813 257.955 155.066 257.457 155.808 254.956C156.55 252.455 156.317 247.453 156.317 247.453" stroke="white" stroke-width="0.506629" stroke-linecap="round" stroke-linejoin="round"/>
<path d="M214.603 159.44C210.873 148.557 210.248 142.654 209.94 139.549C209.633 136.444 206.21 137.366 206.21 137.366C206.21 137.366 198.792 141.721 198.792 142.665C198.792 143.608 202.215 166.604 202.829 170.642C203.203 173.009 203.411 175.399 203.455 177.795C203.455 177.795 190.398 163.807 186.975 160.384C184.368 157.766 182.302 155.53 180.087 154.195C178.89 153.135 176.812 152.743 173.612 151.683C168.016 149.818 162.114 145.462 155.268 145.77C150.773 146.078 146.361 147.131 142.211 148.885C142.211 148.885 132.271 153.548 125.425 156.653C124.628 157.009 123.871 157.45 123.168 157.967C122.044 157.83 119.702 158.434 117.032 164.421C113.312 172.814 96.5256 194.889 93.7172 202.657C90.9089 210.425 96.8223 218.204 103.35 224.414C108.06 229.045 112.521 233.923 116.714 239.028L124.132 229.893C124.342 231.925 124.696 233.94 125.192 235.923C126.124 239.028 129.23 242.451 141.671 243.341C154.113 244.231 182.058 245.948 181.147 239.611C179.864 230.603 180.522 201.682 179.907 193.914C179.725 188.932 179.828 183.943 180.214 178.972C181.645 180.784 184.453 184.143 186.414 185.468C189.211 187.333 201.038 196.065 205.701 197.952C210.364 199.838 216.892 196.712 219.69 190.534C222.488 184.355 218.333 170.324 214.603 159.44ZM113.27 211.04C112.019 206.07 111.404 204.204 111.404 204.204C111.404 204.204 119.374 195.62 123.21 191.042C123.729 203.325 124.058 216.762 123.698 218.734C123.415 222.038 123.489 225.364 123.92 228.653C121.843 225.802 114.329 215.321 113.27 211.04Z" fill="#D4E8D1" stroke="#263238" stroke-width="1.01326" stroke-linecap="round" stroke-linejoin="round"/>
<path opacity="0.1" d="M214.603 159.44C210.873 148.557 210.248 142.654 209.94 139.549C209.633 136.444 206.21 137.366 206.21 137.366C206.21 137.366 198.792 141.721 198.792 142.665C198.792 143.608 202.215 166.604 202.829 170.642C203.203 173.009 203.411 175.399 203.455 177.795C203.455 177.795 190.398 163.807 186.975 160.384C184.368 157.766 182.302 155.53 180.087 154.195C178.89 153.135 176.812 152.743 173.612 151.683C168.016 149.818 162.114 145.462 155.268 145.77C150.773 146.078 146.361 147.131 142.211 148.885C142.211 148.885 132.271 153.548 125.425 156.653C124.628 157.009 123.871 157.45 123.168 157.967C122.044 157.83 119.702 158.434 117.032 164.421C113.312 172.814 96.5256 194.889 93.7172 202.657C90.9089 210.425 96.8223 218.204 103.35 224.414C108.06 229.045 112.521 233.923 116.714 239.028L124.132 229.893C124.342 231.925 124.696 233.94 125.192 235.923C126.124 239.028 129.23 242.451 141.671 243.341C154.113 244.231 182.058 245.948 181.147 239.611C179.864 230.603 180.522 201.682 179.907 193.914C179.725 188.932 179.828 183.943 180.214 178.972C181.645 180.784 184.453 184.143 186.414 185.468C189.211 187.333 201.038 196.065 205.701 197.952C210.364 199.838 216.892 196.712 219.69 190.534C222.488 184.355 218.333 170.324 214.603 159.44ZM113.27 211.04C112.019 206.07 111.404 204.204 111.404 204.204C111.404 204.204 119.374 195.62 123.21 191.042C123.729 203.325 124.058 216.762 123.698 218.734C123.415 222.038 123.489 225.364 123.92 228.653C121.843 225.802 114.329 215.321 113.27 211.04Z" fill="black"/>
<path d="M127.057 189.707C129.025 186.753 130.737 183.637 132.176 180.392" stroke="#263238" stroke-width="0.759943" stroke-linecap="round" stroke-linejoin="round"/>
<path d="M134.878 181.293C134.158 182.792 133.133 184.124 131.868 185.203" stroke="#263238" stroke-width="0.759943" stroke-linecap="round" stroke-linejoin="round"/>
<path d="M203.412 177.785C203.454 179.576 203.85 181.341 204.578 182.978C205.305 184.615 206.35 186.091 207.651 187.323" stroke="#263238" stroke-width="1.01326" stroke-linecap="round" stroke-linejoin="round"/>
<path d="M204.642 182.797C204.388 185.626 205.022 188.463 206.454 190.915" stroke="#263238" stroke-width="1.01326" stroke-linecap="round" stroke-linejoin="round"/>
<path d="M111.404 204.204C111.404 204.204 109.115 202.032 103.467 202.975" stroke="#263238" stroke-width="0.759943" stroke-linecap="round" stroke-linejoin="round"/>
<path d="M100.341 201.725C100.341 201.725 101.909 199.213 107.854 201.089" stroke="#263238" stroke-width="0.759943" stroke-linecap="round" stroke-linejoin="round"/>
<path d="M186.827 169.445C185.577 169.752 180.246 178.845 180.246 178.845L193.101 175.4" stroke="#263238" stroke-width="0.759943" stroke-linecap="round" stroke-linejoin="round"/>
<path d="M149.916 163.245C149.916 163.245 152.322 166.551 157.737 165.057C163.152 163.563 164.954 157.84 164.095 154.226C163.237 150.613 145.105 153.622 149.916 163.245Z" fill="white" stroke="#263238" stroke-width="1.01326" stroke-linecap="round" stroke-linejoin="round"/>
<path d="M144.765 142.654C144.765 142.654 141.131 145.07 140.654 147.253C140.177 149.436 141.374 156.441 142.339 158.858C143.303 161.274 146.461 166.838 146.461 166.838C146.461 166.838 157.345 160.553 158.118 160.066C158.892 159.578 166.596 163.934 168.281 163.245C169.966 162.556 164.17 147.762 161.51 144.625C158.85 141.488 148.634 139.74 144.765 142.654Z" fill="white" stroke="#263238" stroke-width="1.01326" stroke-linecap="round" stroke-linejoin="round"/>
<path d="M142.805 134.663C142.805 134.663 143.049 138.532 143.536 144.339C144.024 150.146 145.984 154.735 149.163 157.395C152.343 160.055 156.9 161.507 158.108 160.055C159.316 158.603 160.768 152.563 160.227 148.928C159.687 145.293 159.019 137.567 159.019 137.567L142.805 134.663Z" fill="white" stroke="#263238" stroke-width="1.01326" stroke-linecap="round" stroke-linejoin="round"/>
<g style="mix-blend-mode:multiply" opacity="0.5">
<path d="M159.761 144.403C159.401 141.022 159.072 137.567 159.072 137.567L142.805 134.663C142.805 134.663 143.049 138.532 143.536 144.339C143.721 147.024 144.34 149.662 145.37 152.149L159.761 144.403Z" fill="#D4E8D1"/>
</g>
<path d="M137.506 128.877C137.506 128.877 133.882 125.253 133.151 128.39C132.419 131.527 135.334 136.38 139.446 135.162V132.268L137.506 128.877Z" fill="white" stroke="#263238" stroke-width="1.01326" stroke-linecap="round" stroke-linejoin="round"/>
<path opacity="0.5" d="M137.506 128.877C137.506 128.877 133.882 125.253 133.151 128.39C132.419 131.527 135.334 136.38 139.446 135.162V132.268L137.506 128.877Z" fill="#D4E8D1" stroke="#263238" stroke-width="1.01326" stroke-linecap="round" stroke-linejoin="round"/>
<path d="M134.327 122.328C134.327 122.328 140.378 138.532 145.698 141.679C151.018 144.826 161.658 147.72 164.562 136.38C167.465 125.041 159.729 108.562 157.069 103.719C154.409 98.8756 144.49 97.4344 138.206 102.267C131.921 107.099 130.491 111.677 134.327 122.328Z" fill="white" stroke="#263238" stroke-width="1.01326" stroke-linecap="round" stroke-linejoin="round"/>
<g style="mix-blend-mode:multiply" opacity="0.5">
<path d="M141.035 108.604C143.603 107.416 146.388 106.767 149.216 106.697L155.246 101.62C151.283 98.5683 143.494 98.1974 138.237 102.246C131.942 107.089 130.491 111.677 134.359 122.328C134.359 122.328 140.41 138.532 145.73 141.679C147.617 142.788 149.66 143.606 151.792 144.106C149.227 140.799 145.285 135.543 144.034 132.862C142.127 128.771 141.311 120.325 138.852 115.418C136.393 110.512 137.22 110.512 141.035 108.604Z" fill="#D4E8D1"/>
</g>
<path d="M153.71 117.485C153.71 117.485 156.126 121.84 155.162 122.784C154.835 123.066 154.441 123.259 154.017 123.344C153.594 123.43 153.156 123.404 152.745 123.271" stroke="#263238" stroke-width="1.01326" stroke-linecap="round" stroke-linejoin="round"/>
<path d="M142.582 116.764C142.582 116.764 143.07 113.861 146.694 113.861" stroke="#263238" stroke-width="2.02651" stroke-linecap="round" stroke-linejoin="round"/>
<path d="M144.766 119.668C144.766 119.668 147.425 120.876 148.39 118.216" stroke="#263238" stroke-width="1.01326" stroke-linecap="round" stroke-linejoin="round"/>
<path d="M156.37 117.729C156.37 117.729 159.03 118.937 160.005 116.277" stroke="#263238" stroke-width="1.01326" stroke-linecap="round" stroke-linejoin="round"/>
<path d="M154.165 112.175C154.811 111.517 155.684 111.13 156.605 111.093C157.527 111.055 158.428 111.37 159.125 111.974" stroke="#263238" stroke-width="2.02651" stroke-linecap="round" stroke-linejoin="round"/>
<path d="M165.06 127.065C162.241 125.836 155.522 123.123 153.275 124.257C150.372 125.709 142.869 130.795 142.869 134.663C142.869 134.663 138.036 128.135 138.036 125.709C138.036 123.282 139.965 122.529 138.28 119.424C136.595 116.319 134.157 116.033 134.889 112.409C135.556 109.049 142.243 105.488 145.486 104.99C147.512 106.705 150.092 107.624 152.745 107.576C158.044 107.576 162.421 104.174 162.421 99.9566C162.421 95.7388 158.087 92.3475 152.745 92.3475C151.557 92.3421 150.374 92.5172 149.238 92.8668C144.172 92.4959 143.208 96.2474 139.7 98.3033C136.192 100.359 133.988 106.421 133.988 106.421H134.136C131.572 110.173 131.582 114.698 134.369 122.317C134.369 122.317 140.421 138.521 145.74 141.668C151.06 144.816 161.7 147.709 164.604 136.37C165.309 133.32 165.464 130.169 165.06 127.065Z" fill="#263238" stroke="#263238" stroke-width="1.01326" stroke-linecap="round" stroke-linejoin="round"/>
<path d="M159.284 126.821C159.284 126.821 155.66 131.897 151.548 128.517" stroke="white" stroke-width="1.01326" stroke-linecap="round" stroke-linejoin="round"/>
<path d="M124.45 229.384C125.887 230.291 127.15 231.446 128.18 232.797C129.443 234.525 130.794 236.188 132.229 237.777C132.229 237.777 135.641 238.085 135.334 239.643C135.026 241.2 134.401 242.122 132.843 242.122C131.285 242.122 127.873 239.017 127.873 239.017L122.903 246.785C122.903 246.785 118.24 243.373 116.682 239.017L124.45 229.384Z" fill="white" stroke="#263238" stroke-width="1.01326" stroke-linecap="round" stroke-linejoin="round"/>
<path d="M151.495 174.362C176.217 174.362 196.259 154.32 196.259 129.598C196.259 104.875 176.217 84.8339 151.495 84.8339C126.772 84.8339 106.731 104.875 106.731 129.598C106.731 154.32 126.772 174.362 151.495 174.362Z" stroke="#263238" stroke-width="2.02651" stroke-linecap="round" stroke-linejoin="round"/>
<path d="M191.914 120.897C191.914 120.897 188.798 120.579 188.184 122.444C187.569 124.31 186.626 126.175 186.626 127.425C186.626 128.676 186.933 129.598 188.491 129.905C190.049 130.212 190.981 128.04 190.981 128.04L191.914 120.897Z" fill="white" stroke="#263238" stroke-width="1.01326" stroke-linecap="round" stroke-linejoin="round"/>
<path d="M192.529 118.714C192.529 118.714 190.981 127.107 190.981 129.598C191.049 131.513 191.7 133.361 192.846 134.897C193.413 135.539 194.177 135.975 195.019 136.136L196.577 134.271C196.577 134.271 194.712 136.762 197.191 139.867C199.671 142.972 201.547 142.665 203.72 141.732C205.892 140.799 206.517 139.559 205.585 136.136C204.652 132.713 204.037 127.118 203.412 123.706C202.787 120.293 200.614 119.043 199.375 119.043C198.135 119.043 194.733 117.782 192.529 118.714Z" fill="white" stroke="#263238" stroke-width="1.01326" stroke-linecap="round" stroke-linejoin="round"/>
<path d="M191.395 131.346C191.395 131.346 190.843 129.418 193.186 129.142C195.528 128.867 199.396 128.453 199.396 128.453" stroke="#263238" stroke-width="0.506629" stroke-linecap="round" stroke-linejoin="round"/>
<path d="M191.67 126.387C191.67 126.387 197.043 124.999 198.982 125.274" stroke="#263238" stroke-width="0.506629" stroke-linecap="round" stroke-linejoin="round"/>
<path d="M192.083 122.519C194.088 122.162 196.12 121.978 198.156 121.968" stroke="#263238" stroke-width="0.506629" stroke-linecap="round" stroke-linejoin="round"/>
<path d="M193.874 132.862C194.299 133.244 194.81 133.52 195.363 133.665C195.916 133.811 196.495 133.823 197.054 133.699" stroke="#263238" stroke-width="0.506629" stroke-linecap="round" stroke-linejoin="round"/>
</svg>
